<svg xmlns="http://www.w3.org/2000/svg" viewBox="0 0 117.45 117.45"><defs><style>.cls-1{fill:#fff;}.cls-2{fill:#9871b0;}</style></defs><g id="Capa_2" data-name="Capa 2"><g id="Capa_1-2" data-name="Capa 1"><circle class="cls-1" cx="58.72" cy="58.72" r="58.72"/><path class="cls-2" d="M28.55,72.37c6.93,6.92,16.38,9,21.4,9.65a1.08,1.08,0,0,0,.86-.27,1.1,1.1,0,0,0,.38-.84V47.5a20.45,20.45,0,0,0-3.4-9.72c-4.42-6.84-12.59-11.68-23.64-14l-.24,0a1.12,1.12,0,0,0-1.07.77C20.46,32,13.85,57.66,28.55,72.37Z"/><path class="cls-2" d="M97.93,94.05a1.29,1.29,0,0,0,.81-1.29c-.71-9.48-5.63-14.22-8-16-7.72,6.9-17.47,9-22.76,9.7-.23,0-.46,0-.68,0a6,6,0,0,1-1-.1v6.72a1.28,1.28,0,0,0,.64,1.11C78.41,100.68,92.44,96.25,97.93,94.05Z"/><path class="cls-2" d="M69.67,37.76a20.48,20.48,0,0,0-3.41,9.74V81a1.07,1.07,0,0,0,.36.79,1,1,0,0,0,.81.25c5-.63,14.52-2.72,21.46-9.66C103.62,57.64,97,32,94.59,24.46a1,1,0,0,0-1.2-.71C82.31,26.07,74.1,30.91,69.67,37.76Z"/><path class="cls-2" d="M61.77,42a2.88,2.88,0,0,0-2.89-2.88h-.32A2.88,2.88,0,0,0,55.68,42V95.29a2.88,2.88,0,0,0,2.88,2.88h.32a2.88,2.88,0,0,0,2.89-2.88Z"/><path class="cls-2" d="M51.85,37.45c1.07-1.35,3.54-2.31,5.29-2.65l-4.9-14.69a2.85,2.85,0,0,0-1.45-1.67L40.21,13.15a2.89,2.89,0,1,0-2.59,5.16l9.52,4.76Z"/><path class="cls-2" d="M65.6,37.45l4.71-14.38,9.51-4.76a2.88,2.88,0,1,0-2.58-5.16L66.66,18.44a2.85,2.85,0,0,0-1.45,1.67L60.31,34.8C62.06,35.14,64.53,36.1,65.6,37.45Z"/><path class="cls-2" d="M19.62,94.09c5.46,2.17,19.4,6.54,30.85.21a1.41,1.41,0,0,0,.72-1.24V86.41a6,6,0,0,1-1.11.11c-.23,0-.46,0-.7,0-5.28-.67-15-2.82-22.68-9.7-2.37,1.75-7.24,6.43-8,15.87A1.44,1.44,0,0,0,19.62,94.09Z"/></g></g></svg>