<svg xmlns="http://www.w3.org/2000/svg" viewBox="0 0 117.45 117.45"><defs><style>.cls-1{fill:#fff;}.cls-2{fill:#86cccd;}</style></defs><g id="Capa_2" data-name="Capa 2"><g id="Capa_1-2" data-name="Capa 1"><circle class="cls-1" cx="58.72" cy="58.72" r="58.72"/><path class="cls-2" d="M58.72,11.29a47.43,47.43,0,1,0,47.43,47.43A47.44,47.44,0,0,0,58.72,11.29ZM74.46,79.68c-.74.75-1.53,1.52-2.16,2.16a4.57,4.57,0,0,0-1.18,2c-.29,1.08-.52,2.18-.91,3.23l-3.33,9a38.42,38.42,0,0,1-8.16.89V91.74c.33-2.42-1.46-6.94-4.32-9.8a6.13,6.13,0,0,1-1.8-4.33V71.49a6.1,6.1,0,0,0-3.14-5.35c-2.75-1.52-6.66-3.65-9.34-5a27.23,27.23,0,0,1-6-4.16l-.16-.13a22.51,22.51,0,0,1-3.45-4c-1.79-2.63-4.72-7-6.61-9.78A38.48,38.48,0,0,1,43.58,23.61l4.59,2.3a3.06,3.06,0,0,0,4.43-2.74V21a37.87,37.87,0,0,1,4.67-.46L62.68,26a3.05,3.05,0,0,1,0,4.33l-.9.89-2,2a1.52,1.52,0,0,0,0,2.16l.89.9a1.52,1.52,0,0,1,0,2.16l-1.53,1.53a1.5,1.5,0,0,1-1.08.45H56.37a1.54,1.54,0,0,0-1.07.44l-1.89,1.84a1.54,1.54,0,0,0-.31,1.78l3,6a1.53,1.53,0,0,1-1.37,2.21H53.64a1.53,1.53,0,0,1-1-.37l-1.78-1.54a3.05,3.05,0,0,0-3-.6l-6,2a2.27,2.27,0,0,0-1.56,2.17,2.29,2.29,0,0,0,1.26,2l2.12,1.06a13,13,0,0,0,5.8,1.37c2,0,4.32,5.22,6.12,6.12H68.43a6.17,6.17,0,0,1,4.33,1.79l2.62,2.62a5.87,5.87,0,0,1,1.71,4.13A8.94,8.94,0,0,1,74.46,79.68ZM91,62.21a4.55,4.55,0,0,1-2.7-1.9L84.9,55.15a4.58,4.58,0,0,1,0-5.09l3.75-5.62a4.64,4.64,0,0,1,1.76-1.56l2.49-1.24A38,38,0,0,1,97,58.72a37.52,37.52,0,0,1-.35,4.89Z"/></g></g></svg>