<svg xmlns="http://www.w3.org/2000/svg" viewBox="0 0 117.45 117.45"><defs><style>.cls-1{fill:#fff;}.cls-2{fill:#f5e264;}</style></defs><g id="Capa_2" data-name="Capa 2"><g id="Capa_1-2" data-name="Capa 1"><circle class="cls-1" cx="58.72" cy="58.72" r="58.72"/><path class="cls-2" d="M96.63,20.81c-3.75-3.75-8.84-4.7-12.21-2.74-9.58,5.59-29.49-8.63-52.23,14.12S23.66,74.84,18.07,84.42c-2,3.37-1,8.46,2.74,12.21s8.85,4.7,12.22,2.74c9.58-5.58,29.48,8.64,52.23-14.11S93.79,42.61,99.37,33C101.33,29.66,100.39,24.57,96.63,20.81ZM56.75,32.62C47.29,35,35,47.28,32.62,56.75a2.61,2.61,0,0,1-2.53,2,2.76,2.76,0,0,1-.63-.07,2.61,2.61,0,0,1-1.89-3.16C30.4,44.15,44.13,30.41,55.49,27.57a2.6,2.6,0,1,1,1.26,5Z"/></g></g></svg>