<svg xmlns="http://www.w3.org/2000/svg" viewBox="0 0 117.45 117.45"><defs><style>.cls-1{fill:#fff;}.cls-2{fill:#96cb99;}</style></defs><g id="Capa_2" data-name="Capa 2"><g id="Capa_1-2" data-name="Capa 1"><circle class="cls-1" cx="58.72" cy="58.72" r="58.72"/><path class="cls-2" d="M58.83,28.05c-70.7,0-57.12,61.34-25.31,61.34a19.69,19.69,0,0,0,16.2-8.92l4.11-6a5.92,5.92,0,0,1,10,0l4.11,6a19.69,19.69,0,0,0,16.2,8.92c30.33,0,46.43-61.34-25.31-61.34ZM37,67.09c-6.56,0-10.83-4.1-12.79-6.56a2.9,2.9,0,0,1,0-3.61c2-2.46,6.23-6.56,12.79-6.56s10.82,4.1,12.79,6.56a2.9,2.9,0,0,1,0,3.61c-2,2.46-6.23,6.56-12.79,6.56Zm43.45,0c-6.56,0-10.83-4.1-12.79-6.56a2.9,2.9,0,0,1,0-3.61c2-2.46,6.23-6.56,12.79-6.56s10.82,4.1,12.79,6.56a2.9,2.9,0,0,1,0,3.61C91.27,63,87,67.09,80.45,67.09Z"/></g></g></svg>