<svg xmlns="http://www.w3.org/2000/svg" viewBox="0 0 583.27 385.67"><defs><style>.cls-1{fill:#fff;}.cls-1,.cls-10,.cls-11,.cls-2,.cls-3,.cls-4,.cls-5,.cls-6,.cls-7,.cls-8,.cls-9{fill-rule:evenodd;}.cls-2{fill:#92d99c;}.cls-3{fill:#63a98d;}.cls-12,.cls-4{fill:#1b222d;}.cls-5{fill:#ebf0fd;}.cls-6{fill:#839ad5;}.cls-7{fill:#6862c7;}.cls-8{fill:#a8c3df;}.cls-9{fill:#e07077;}.cls-10{fill:#a45066;}.cls-11{fill:#f6e264;}</style></defs><g id="Capa_2" data-name="Capa 2"><g id="OBJECTS"><path class="cls-1" d="M432.2,146.79s4.41-5,12-11.9c4.75,1.6,27.39,8.6,27.27-3.35-.09-9.83-14-5-21.4-1.8,3.52-3,7.5-6.19,11.87-9.43,5.52,1.93,26.17,8.47,25.85-1.46-.33-10.27-15-4.91-19.73-2.91,3.83-2.63,7.9-5.23,12.18-7.72,4.34,1.91,21,8.6,22.21-.31,1.12-7.93-9.71-5.39-14.69-3.82,2.45-1.27,4.95-2.49,7.51-3.64,9.56,1.44,32.62-3.49,24-11.86-7.5-7.3-20,5.39-24.08,10q-4.33,1.93-8.48,4.09c3-5.14,9.29-17.3-.39-16.28-10.77,1.13-8.12,16.79-7.32,20.54-3.48,2-6.82,4.14-10,6.28,4.39-6.5,12.21-20.26,1-21.58-13.52-1.59-10.16,23.45-9.51,27.6-5.12,3.81-9.7,7.57-13.64,11,4.19-5.69,17.06-24.5,3.53-23.79-14.14.73-8.74,22.32-7.34,27.18-7.7,7-12.12,12-12.15,12Z"/><path class="cls-2" d="M328.64,182.24c0-.05-3.33-5.07-7.64-13.43,2.53-3.81,14.06-22.12,3.48-24.84-8.68-2.24-7.74,11.2-6.64,18.45-1.81-3.81-3.69-8.08-5.51-12.69,3-4.42,13.66-21.09,4.82-23.15-9.14-2.14-7.87,12.07-7.22,16.72-1.42-4-2.76-8.21-3.94-12.57,2.72-3.38,12.54-16.45,5-19.66-6.73-2.86-7.05,7.29-6.85,12.05-.53-2.46-1-5-1.43-7.48,3.53-8.1,4.64-29.6-4.79-24-8.2,4.89,0,18.9,3.14,23.6.45,2.86,1,5.68,1.6,8.45-3.82-3.9-13.06-12.28-14.45-3.51-1.55,9.77,12.89,11.13,16.38,11.32,1,3.54,2.05,7,3.18,10.3-4.7-5.4-15-15.55-18.8-6-4.59,11.55,18.28,14.5,22.1,14.91,2.15,5.41,4.38,10.34,6.47,14.62-4-5-17.58-20.83-20.16-8.73-2.69,12.65,17.63,13,22.24,12.89,4.36,8.45,7.7,13.52,7.73,13.56Z"/><path class="cls-2" d="M374,302.41s5.06-3.33,13.42-7.65c3.81,2.54,22.12,14.06,24.84,3.49,2.24-8.69-11.2-7.75-18.45-6.64,3.81-1.81,8.08-3.69,12.69-5.51,4.42,3,21.09,13.66,23.15,4.82,2.14-9.14-12.06-7.87-16.72-7.23,4-1.41,8.21-2.75,12.57-3.93,3.38,2.71,16.45,12.54,19.66,5,2.86-6.73-7.29-7.05-12.05-6.85,2.46-.54,5-1,7.48-1.43,8.1,3.53,29.6,4.63,24-4.79-4.89-8.2-18.9,0-23.6,3.13q-4.29.69-8.45,1.61c3.9-3.82,12.28-13.06,3.51-14.45-9.77-1.55-11.13,12.88-11.31,16.38-3.55,1-7,2.05-10.31,3.18,5.4-4.7,15.55-15,6-18.8-11.55-4.6-14.5,18.28-14.91,22.1-5.41,2.15-10.34,4.37-14.62,6.46,5-4,20.83-17.57,8.73-20.15-12.65-2.69-13,17.62-12.89,22.24-8.45,4.36-13.52,7.7-13.56,7.72Z"/><path class="cls-3" d="M374,302.41s5.06-3.33,13.42-7.65a71.71,71.71,0,0,0,8.68,4.94c-.29-4.73,3.89-7.57,6.27-8.79a56.46,56.46,0,0,0-8.56.7c2.15-1,4.45-2.07,6.87-3.11a5.14,5.14,0,0,1-.16-1.64c-3.49,1.49-6.73,3-9.66,4.42a71.48,71.48,0,0,0,9.64-9.15c-3-.65-2-6.56-.79-11l-.12,0c-12.65-2.69-13,17.62-12.89,22.24-8.45,4.36-13.52,7.7-13.56,7.72Z"/><path class="cls-2" d="M174.87,294.05s-5-3.44-13.25-7.94c-3.86,2.44-22.43,13.56-24.91,2.93-2.05-8.73,11.37-7.49,18.59-6.23-3.77-1.89-8-3.87-12.57-5.79-4.48,2.91-21.38,13.19-23.25,4.31-1.93-9.19,12.24-7.61,16.88-6.86-4-1.5-8.15-2.93-12.48-4.21-3.44,2.64-16.72,12.17-19.77,4.54-2.71-6.79,7.45-6.89,12.2-6.58-2.44-.59-4.93-1.13-7.45-1.59-8.17,3.34-29.68,4-23.87-5.32,5.07-8.1,18.89.45,23.52,3.65q4.27.78,8.42,1.79c-3.82-3.9-12-13.32-3.19-14.52,9.8-1.33,10.84,13.13,11,16.63,3.52,1.05,6.94,2.2,10.23,3.4-5.3-4.82-15.22-15.32-5.55-18.92,11.65-4.34,14.09,18.6,14.41,22.42,5.37,2.27,10.24,4.61,14.48,6.79-4.95-4.14-20.43-18-8.28-20.34,12.7-2.41,12.58,17.91,12.39,22.52,8.35,4.54,13.34,8,13.39,8Z"/><path class="cls-3" d="M174.87,294.05s-5-3.44-13.25-7.94c-1,.65-3.09,1.91-5.62,3.21a9.45,9.45,0,0,0-1.27-6.61l.57.1-.71-.36a21.2,21.2,0,0,0-1.76-2.6c1.91.91,3.72,1.82,5.43,2.7-4.95-4.14-20.43-18-8.28-20.34,12.7-2.41,12.58,17.91,12.39,22.52,8.35,4.54,13.34,8,13.39,8l-.89,1.3Zm-45.78-27.89c2.89-.71,9.5-1.77,13.6,2-1.59-7.76-5.24-17.88-13.32-14.87C122.86,255.76,125.23,261.32,129.09,266.16Z"/><path class="cls-1" d="M133.53,127.2s-4.3-5-11.77-12.16c-4.78,1.5-27.56,8-27.18-4,.31-9.83,14.15-4.71,21.44-1.33-3.46-3.07-7.36-6.35-11.66-9.68C98.8,101.88,78,108,78.54,98c.56-10.26,15.1-4.58,19.8-2.47-3.77-2.71-7.79-5.41-12-8-4.39,1.81-21.14,8.13-22.2-.8-.94-8,9.84-5.17,14.78-3.5q-3.63-2-7.43-3.8c-9.6,1.22-32.54-4.21-23.75-12.4C55.38,60,67.59,72.92,71.58,77.62,74.44,79,77.24,80.41,80,81.9c-2.93-5.21-8.91-17.5.75-16.27,10.74,1.37,7.74,17,6.86,20.7,3.43,2.11,6.73,4.29,9.87,6.5-4.24-6.6-11.76-20.53-.51-21.6C110.49,70,106.57,94.9,105.83,99c5,3.92,9.53,7.78,13.39,11.29-4.06-5.78-16.51-24.87-3-23.87,14.12,1.05,8.23,22.51,6.72,27.34C130.5,121,134.8,126,134.84,126.08Z"/><path class="cls-1" d="M162.66,296.73l3.41-132.52s-1-8.71,10.71-8.3,211,6.11,211,6.11,8.06,1.52,8.51,7.76-3.2,135.44-3.2,135.44Z"/><path class="cls-4" d="M287.21,161.06a2,2,0,1,1-2,2A2,2,0,0,1,287.21,161.06Z"/><path class="cls-4" d="M171.25,280.27l2.8-108.76s-.91-7.58,9.32-7.23l197.13,7s7,1.31,7.41,6.75c.33,4.62-1.92,86.7-2.6,111.09a6.68,6.68,0,0,1-7,6.48l-200.7-8.52A6.68,6.68,0,0,1,171.25,280.27Z"/><path class="cls-4" d="M291,260.74s-29.83-12.58-72.69-20.69l-40.7,47.06c-5.55-5.21-10.61-5.37-14.64-3.78l3.06-119.12s-1-8.71,10.71-8.3c5,.17,43.39,1.29,86.12,2.52C268.52,193.08,274.14,229.56,291,260.74Z"/><path class="cls-4" d="M367.91,161.45l19.86.57s8.06,1.52,8.51,7.76c.31,4.34-1.35,67.93-2.4,106.41-2.86-5.11-7.57-8.68-14.55,0C370.08,287.7,368.22,207.78,367.91,161.45Z"/><path class="cls-5" d="M268.63,294.3s17.56-.77,18,1.22.16,3.93-.28,3.82-17.68.31-18-.66S268.11,294.3,268.63,294.3Z"/><path class="cls-1" d="M274.5,255.67l-12.08-34.22a1.32,1.32,0,0,0-1.06-.88q-7.51-1.17-15-2.17a1.33,1.33,0,0,0-1.43,1.78l12.37,33.59a1.28,1.28,0,0,0,1,.85q7.35,1.38,14.72,2.81a1.31,1.31,0,0,0,1.26-.44,1.33,1.33,0,0,0,.25-1.32Zm.73.2c-3.94-11.06-7.85-22-11.63-32.92a1.33,1.33,0,0,1,1.49-1.76l15.06,2.6a1.28,1.28,0,0,1,1,.9c3.76,11.45,7.76,23,11.88,34.69a1.33,1.33,0,0,1-.25,1.32,1.31,1.31,0,0,1-1.27.43l-14.81-3a1.28,1.28,0,0,1-1-.86l-.51-1.43Zm-14-37.94a1.29,1.29,0,0,1-.23,1.29,1.32,1.32,0,0,1-1.23.46q-7.53-1.16-15-2.13a1.33,1.33,0,0,1-1.08-.87c-4.08-11.06-8.11-22.07-12-33a1.33,1.33,0,0,1,1.38-1.78q8,.74,16.1,1.8a1.33,1.33,0,0,1,1.1.92c3.46,11,7.16,22.15,11,33.34Zm-12.09-36.8c-3.38-10.94-6.51-21.82-9.29-32.66a1.3,1.3,0,0,0-1.15-1q-9-1-17.92-1.53a1.29,1.29,0,0,0-1.14.51,1.32,1.32,0,0,0-.22,1.23c3.47,10.81,7.17,21.65,11,32.53a1.31,1.31,0,0,0,1.14.89q8.06.7,16.12,1.74a1.32,1.32,0,0,0,1.2-.47,1.29,1.29,0,0,0,.25-1.25ZM239,145.06a1.31,1.31,0,0,1-.29,1.2,1.33,1.33,0,0,1-1.15.46q-9-1-18-1.48a1.32,1.32,0,0,1-1.2-.93c-3.41-10.76-6.62-21.45-9.27-32.38a1.29,1.29,0,0,1,.27-1.16,1.27,1.27,0,0,1,1.07-.49c6.85.21,13.71.65,20.58,1.28a1.32,1.32,0,0,1,1.19,1.12c1.73,10.93,4.1,21.62,6.8,32.38Zm-3.16-16.28q-1.64-7.64-2.87-15.3a1.27,1.27,0,0,1,.36-1.14,1.3,1.3,0,0,1,1.12-.4l20.43,2.6a1.32,1.32,0,0,1,1.16,1.22,304.92,304.92,0,0,0,4.55,32.34,1.32,1.32,0,0,1-.34,1.17,1.3,1.3,0,0,1-1.16.4L241,147.13a1.32,1.32,0,0,1-1.11-1q-2.19-8.7-4.07-17.35Zm5,20.81c2.82,10.89,6,21.83,9.41,32.82a1.3,1.3,0,0,0,1.07.93l16.22,2.52a1.29,1.29,0,0,0,1.2-.42,1.33,1.33,0,0,0,.3-1.25c-3-11-5.59-21.85-7.74-32.67a1.32,1.32,0,0,0-1.12-1.06l-17.86-2.53a1.31,1.31,0,0,0-1.19.44,1.3,1.3,0,0,0-.29,1.22Zm10.51,36.34a1.3,1.3,0,0,1,.26-1.28,1.29,1.29,0,0,1,1.22-.44l16.08,2.51a1.31,1.31,0,0,1,1.08,1c3.11,11.23,6.49,22.25,10.13,33.46a1.28,1.28,0,0,1-.26,1.28,1.3,1.3,0,0,1-1.24.45l-15.13-2.6a1.34,1.34,0,0,1-1-.88c-3.87-11.23-7.61-22.38-11.1-33.46Zm-19.61-76.54A288.85,288.85,0,0,1,228.77,77a1.33,1.33,0,0,0-1.23-1.29c-7.89-.6-15.78-1-23.64-1a1.29,1.29,0,0,0-1,.47,1.32,1.32,0,0,0-.29,1.1l5.74,32.36a1.33,1.33,0,0,0,1.23,1.1l20.71,1.25a1.31,1.31,0,0,0,1.4-1.52Zm-3-35.74a1.34,1.34,0,0,1-.42,1,1.32,1.32,0,0,1-1,.36q-11.94-.9-23.86-1a1.33,1.33,0,0,1-1.32-1.18,318.77,318.77,0,0,1-2.08-33,1.33,1.33,0,0,1,1.32-1.35q13.62-.15,27.3.7a1.32,1.32,0,0,1,1.25,1.45,297,297,0,0,0-1.17,33Zm.57-8.42q.11-12.26,1.24-24.65a1.33,1.33,0,0,1,1.42-1.21q13.56.93,27.05,2.7a1.28,1.28,0,0,1,.91.54,1.25,1.25,0,0,1,.23,1,280.87,280.87,0,0,0-4.33,33.12,1.28,1.28,0,0,1-.48.94,1.3,1.3,0,0,1-1,.3L230.51,75.3A1.33,1.33,0,0,1,229.32,74q-.09-4.38-.06-8.78Zm.16,12.12a286.77,286.77,0,0,0,3,32.72,1.31,1.31,0,0,0,1.15,1.13l20.7,2.63a1.32,1.32,0,0,0,1.09-.35,1.3,1.3,0,0,0,.41-1.07,260.48,260.48,0,0,1-.17-32.35,1.33,1.33,0,0,0-1.18-1.41L230.9,76a1.34,1.34,0,0,0-1.48,1.37Zm.76-40a323.57,323.57,0,0,1,5.47-34.59,1.28,1.28,0,0,0-.25-1.1,1.29,1.29,0,0,0-1-.51Q218.67.66,203,1.31a1.32,1.32,0,0,0-1.27,1.2,327.19,327.19,0,0,0-1.75,34,1.3,1.3,0,0,0,.39.95,1.34,1.34,0,0,0,1,.39c9.13-.1,18.29.15,27.45.7a1.32,1.32,0,0,0,1.41-1.19ZM236.13.56l.12-.56.62.13-.1.46q16.5.58,32.93,2.27A1.31,1.31,0,0,0,271.1,2l0-.09.6.2-.33,1c11.52,1.2,23,2.77,34.4,4.63l-.05.31.28.13c-18.61,41.67-28.63,84.06-25.28,128.38,3.26,43,17.57,87.58,32.47,129.35l-.3.1-.07.31c-21.49-4.68-43.24-8.93-64.79-12.88-8.81-1.61-17.65-3.39-26.61-5.47a1.3,1.3,0,0,0-.78,0l-.19.08-.15-.39L202.43,243l.11.29-.58.23-.05-.12a1.31,1.31,0,0,0-.88-.79q-9.22-2.62-18.75-5.85l.1-.3-.29.12c-14.22-35-34-70-55.42-102.41q-4.8-7.27-9.38-14.56l-.14,0,0-.17a1.38,1.38,0,0,0-.17-.42q-9-14.4-17.19-28.82l-1,.32-.19-.6.9-.28C94.13,80.25,89,70.58,84.33,61l-1.13.44L83,60.81l1.08-.42Q77.06,46,71.17,31.6l.29-.12-.13-.29q13.55-6.1,27.91-11.09a1.34,1.34,0,0,0,.86-1.61l-.18-.67.6-.17.13.47a1.28,1.28,0,0,0,.66.83,1.25,1.25,0,0,0,1,.08c9.87-3.3,20-6.2,30.23-8.64l-.11-.78.63-.09.09.73c34-8,67.78-10.88,102.93-9.69Zm.26,1.75a321.31,321.31,0,0,0-5.57,35,1.27,1.27,0,0,0,.31,1,1.32,1.32,0,0,0,.93.47q13.63.95,27.21,2.72a1.33,1.33,0,0,0,1.48-1.06,323,323,0,0,1,9.3-35.25A1.3,1.3,0,0,0,269.89,4a1.27,1.27,0,0,0-1-.59q-15.54-1.56-31.16-2.17a1.34,1.34,0,0,0-1.36,1.06ZM155.57,178c4.78.18,9.61.33,14.45.48a1.33,1.33,0,0,0,1.23-1.94q-7.22-14.23-14.92-28.48a1.31,1.31,0,0,0-1.28-.7q-8,.66-15.94,1.44a1.29,1.29,0,0,0-1.07.74,1.31,1.31,0,0,0,.07,1.3c16.95,27.19,32.5,55.92,44.28,84.8a1.29,1.29,0,0,0,.81.77c5.25,1.77,10.41,3.39,15.52,4.88a1.31,1.31,0,0,0,1.36-.39,1.3,1.3,0,0,0,.25-1.4c-3.77-9.24-7.81-18.5-12.05-27.78a1.33,1.33,0,0,0-1-.77c-5.34-.82-10.71-1.72-16.13-2.74l.12-.62q7,1.32,13.89,2.39a1.33,1.33,0,0,0,1.41-1.9L173,179.94a1.31,1.31,0,0,0-1.17-.75c-5.39-.16-10.79-.32-16.23-.53l0-.63Zm18.21.58,15.38.43a1.33,1.33,0,0,0,1.25-1.88q-6.84-15.16-13.84-30.33a1.34,1.34,0,0,0-1.3-.78l-16.59,1.08a1.34,1.34,0,0,0-1.09,2q7.74,14.4,15,28.78a1.28,1.28,0,0,0,1.15.73Zm5.67.79-3.95-.11a1.34,1.34,0,0,0-1.24,1.92l13.84,28.67a1.28,1.28,0,0,0,1,.74q7.41,1.13,14.76,2.06a1.28,1.28,0,0,0,1.24-.52,1.33,1.33,0,0,0,.16-1.33q-6.49-15.17-13.34-30.33a1.32,1.32,0,0,0-1.18-.78l-11.29-.32Zm13.37-.25q7.78.24,15.62.56a1.3,1.3,0,0,0,1.15-.56,1.29,1.29,0,0,0,.15-1.27c-4.21-10.55-8.4-21.09-12.48-31.63a1.3,1.3,0,0,0-1.25-.85c-5.77,0-11.49.22-17.17.47a1.33,1.33,0,0,0-1.15,1.89q7,15.3,14,30.6a1.3,1.3,0,0,0,1.17.79Zm19.23.74a1.32,1.32,0,0,1-1.16-.84q-6.37-15.93-12.57-31.81a1.33,1.33,0,0,1,1.28-1.81l17.57.35a1.31,1.31,0,0,1,1.24.93q5.16,16.14,10.91,32.37a1.34,1.34,0,0,1-1.35,1.78l-15.92-1ZM221.2,181c-2.56-.15-5.11-.28-7.67-.41a1.31,1.31,0,0,0-1.15.56,1.29,1.29,0,0,0-.15,1.27l12.83,32.13a1.29,1.29,0,0,0,1.08.83L241,217.1a1.33,1.33,0,0,0,1.41-1.79q-6.09-16.5-11.93-32.87a1.31,1.31,0,0,0-1.15-.88c-2.72-.22-5.43-.42-8.15-.58Zm-11.3-.57a1.32,1.32,0,0,1,1.19.83l12.72,31.87a1.33,1.33,0,0,1-1.39,1.82q-7.36-.84-14.76-1.76a1.3,1.3,0,0,1-1.06-.8q-6.54-15.33-13.45-30.66a1.32,1.32,0,0,1,.11-1.29,1.3,1.3,0,0,1,1.15-.59q7.72.24,15.49.58Zm61.1,6a1.3,1.3,0,0,1-1.05-1c-3-11-5.68-22-7.88-32.88a1.28,1.28,0,0,1,.35-1.19,1.32,1.32,0,0,1,1.19-.39q8.81,1.53,17.57,3.39a1.31,1.31,0,0,1,1.05,1.11c5.16,35.85,16.94,72.62,29.4,107.73a1.3,1.3,0,0,1-.26,1.33,1.32,1.32,0,0,1-1.28.42c-4.94-1.07-9.87-2.1-14.78-3.12a1.31,1.31,0,0,1-1-.86c-4.14-11.73-8.17-23.33-12-34.83a1.34,1.34,0,0,1,1.52-1.73q7.47,1.42,15,3l.13-.62q-8.37-1.75-16.76-3.33a1.32,1.32,0,0,1-1-.9c-3.69-11.28-7.1-22.33-10.25-33.59a1.29,1.29,0,0,1,.3-1.26,1.32,1.32,0,0,1,1.23-.42q8.16,1.5,16.3,3.24l.13-.62Q280,188.07,271,186.45ZM85.78,59.72q11.35-4.36,23.29-7.95a1.27,1.27,0,0,0,.81-.67,1.29,1.29,0,0,0,.07-1.05q-5-14.14-9-28.38a1.33,1.33,0,0,0-.67-.83,1.31,1.31,0,0,0-1.06-.07Q85.8,25.44,73.05,31.11a1.35,1.35,0,0,0-.7,1.73Q77.76,46,84.1,59.05a1.33,1.33,0,0,0,1.68.67Zm26.45-8.87c8.3-2.39,16.78-4.48,25.31-6.22a1.27,1.27,0,0,0,.86-.58,1.33,1.33,0,0,0,.18-1q-3.5-15.2-5.7-30.55a1.28,1.28,0,0,0-.57-.91,1.27,1.27,0,0,0-1.07-.19c-9.76,2.36-19.44,5.16-28.86,8.32a1.34,1.34,0,0,0-.86,1.63q4,14.4,9.08,28.69a1.34,1.34,0,0,0,1.63.84Zm18.94-4.21q-9.43,2.13-18.56,4.75a1.32,1.32,0,0,0-.82.68,1.31,1.31,0,0,0-.06,1.06c3.53,9.71,7.43,19.4,11.61,28.93a1.31,1.31,0,0,0,1.48.77l22.06-4.34a1.33,1.33,0,0,0,.89-.64,1.29,1.29,0,0,0,.12-1.08c-3.25-10.08-6.12-20.29-8.56-30.54a1.34,1.34,0,0,0-1.57-1q-3.31.68-6.59,1.41Zm-21.75,5.68Q97.57,55.86,86.28,60.2A1.33,1.33,0,0,0,85.56,62c4.37,8.88,9.08,17.8,14,26.53a1.33,1.33,0,0,0,1.56.62q10-3.09,20.51-5.63a1.29,1.29,0,0,0,.88-.71,1.23,1.23,0,0,0,0-1.12c-4.11-9.42-8-19-11.44-28.58a1.34,1.34,0,0,0-1.64-.83ZM140.77,44q13.06-2.54,26.62-4.07a1.34,1.34,0,0,0,1.18-1.47q-1.78-16.07-2.07-32.29a1.32,1.32,0,0,0-.47-1,1.27,1.27,0,0,0-1.06-.3q-15.53,2.25-30.49,5.74a1.32,1.32,0,0,0-1,1.49Q135.68,27.6,139.21,43a1.33,1.33,0,0,0,1.56,1Zm29.89-4.42c9.12-.94,18.17-1.5,27.37-1.69a1.33,1.33,0,0,0,1.31-1.34A328.16,328.16,0,0,1,201,2.94a1.33,1.33,0,0,0-1.4-1.47q-15.76.81-31.36,2.92a1.34,1.34,0,0,0-1.16,1.35q.27,16.41,2.08,32.65a1.33,1.33,0,0,0,1.46,1.18Zm10.87-.31c-3.61.25-7.2.57-10.76.93a1.31,1.31,0,0,0-.91.5,1.27,1.27,0,0,0-.28,1c1.3,10.78,3.12,21.54,5.42,32.17a1.32,1.32,0,0,0,1.4,1.05c7.91-.59,15.73-.9,23.68-.92a1.27,1.27,0,0,0,1-.45,1.24,1.24,0,0,0,.33-1,317.59,317.59,0,0,1-2-32.66,1.29,1.29,0,0,0-.41-.94,1.25,1.25,0,0,0-.95-.38c-5.51.12-11,.36-16.47.75Zm-14.06,1.29q-13.46,1.5-26.45,4A1.34,1.34,0,0,0,140,46.2q3.71,15.52,8.66,30.81a1.33,1.33,0,0,0,1.48.91q11.31-1.74,23-2.75a1.3,1.3,0,0,0,1-.54,1.32,1.32,0,0,0,.23-1.07C172,63,170.24,52.39,169,41.71a1.34,1.34,0,0,0-1.48-1.16Zm95.07,1.36q12.56,1.71,25,4l-.11.62q-12.53-2.32-25.18-4.06a1.33,1.33,0,0,0-1.49,1.07A275.91,275.91,0,0,0,256.4,77a1.33,1.33,0,0,0,1.13,1.41c7.8,1.16,15.58,2.53,23.32,4.06l-.13.62q-11.45-2.28-23-4a1.3,1.3,0,0,0-1,.29,1.28,1.28,0,0,0-.49,1,257,257,0,0,0,.23,32.73,1.32,1.32,0,0,0,1.12,1.22q10.21,1.64,20.36,3.73a1.26,1.26,0,0,0,1.1-.27,1.24,1.24,0,0,0,.5-1C280,80,289.28,44.6,304.59,9.8a1.24,1.24,0,0,0,0-1.17,1.26,1.26,0,0,0-1-.68Q288,5.46,272.28,3.76a1.34,1.34,0,0,0-1.42.92,326.61,326.61,0,0,0-9.45,35.64,1.32,1.32,0,0,0,.22,1,1.29,1.29,0,0,0,.91.55ZM142.33,79.85q-8.47,1.52-16.73,3.41a1.35,1.35,0,0,0-.92,1.85q6.47,14.48,13.9,28.87a1.33,1.33,0,0,0,1.38.71L159.11,112a1.3,1.3,0,0,0,1-.66,1.28,1.28,0,0,0,.08-1.17Q154,95.1,148.91,79.88a1.34,1.34,0,0,0-1.49-.9c-1.7.28-3.4.57-5.09.87Zm-20,4.18Q111.93,86.52,102,89.58a1.34,1.34,0,0,0-.77,1.94q7.55,13.32,15.9,26.62a1.3,1.3,0,0,0,1.41.59q8.9-1.91,18.07-3.5a1.29,1.29,0,0,0,1-.72,1.3,1.3,0,0,0,0-1.2q-7.31-14.24-13.68-28.52a1.32,1.32,0,0,0-1.53-.76Zm64.32-9.11q6.9-.3,13.83-.31a1.34,1.34,0,0,1,1.33,1.17A326.67,326.67,0,0,0,207.47,108a1.32,1.32,0,0,1-.25,1.12,1.29,1.29,0,0,1-1,.51l-20.51.28a1.33,1.33,0,0,1-1.29-.93q-5-15.84-8.66-31.83a1.33,1.33,0,0,1,1.2-1.62q4.83-.36,9.72-.58Zm-13,.84q-11.59,1-22.85,2.7a1.32,1.32,0,0,0-1.06,1.74q5.08,15.36,11.41,30.6a1.32,1.32,0,0,0,1.38.81q9.79-1,19.84-1.6a1.34,1.34,0,0,0,1.2-1.73q-5-15.68-8.51-31.48a1.32,1.32,0,0,0-1.41-1Zm-18.14,37.3c-4.81.6-9.56,1.29-14.27,2a1.28,1.28,0,0,0-1,.73,1.31,1.31,0,0,0,0,1.23l15.65,28.85a1.32,1.32,0,0,0,1.26.7L174,145.5a1.34,1.34,0,0,0,1.13-1.89c-4.63-10-9.36-20.13-13.63-30.29a1.31,1.31,0,0,0-1.38-.81c-1.55.17-3.09.36-4.63.55Zm-17.72,2.61q-9.09,1.55-17.89,3.42a1.34,1.34,0,0,0-.85,2l17.82,27.67,0-.36c5.54-.55,11.14-1.08,16.78-1.55a1.27,1.27,0,0,0,1.06-.69,1.3,1.3,0,0,0,0-1.27l-15.48-28.57a1.34,1.34,0,0,0-1.4-.68Zm58.19-5.51c-3.11,0-6.2.15-9.28.28a1.27,1.27,0,0,0-1,.57,1.34,1.34,0,0,0-.17,1.18C189,122.88,193,133.39,197,143.92a1.3,1.3,0,0,0,1.22.85l17.8.35a1.27,1.27,0,0,0,1.09-.53,1.3,1.3,0,0,0,.21-1.2c-3.37-10.69-6.54-21.3-9.13-32.18a1.33,1.33,0,0,0-1.28-1q-5.52-.12-11,0Zm-12.71.44q-10,.51-19.7,1.54a1.29,1.29,0,0,0-1,.64,1.31,1.31,0,0,0-.08,1.2c4.34,10.25,9.12,20.43,13.78,30.55a1.31,1.31,0,0,0,1.28.77q8.57-.41,17.28-.52A1.34,1.34,0,0,0,196,143c-4-10.44-8-20.83-11.44-31.44a1.31,1.31,0,0,0-1.34-.92Zm25.28-1L231.9,111c-7.82-.73-15.62-1.22-23.41-1.42Zm71,9.11-.06.29q-10.56-2.2-21.2-3.94a1.28,1.28,0,0,0-1.12.34,1.33,1.33,0,0,0-.43,1.09,309.42,309.42,0,0,0,4.7,32.66,1.33,1.33,0,0,0,1.09,1.06q8.85,1.5,17.68,3.36a1.33,1.33,0,0,0,1.6-1.49,245,245,0,0,1-2.26-33.37ZM202.78,242.46l14.74,3.81a1.34,1.34,0,0,0,1.58-1.78c-3.93-10.05-8.07-20.09-12.34-30.13a1.29,1.29,0,0,0-1.06-.8q-7.24-.93-14.55-2a1.27,1.27,0,0,0-1.26.52,1.29,1.29,0,0,0-.15,1.35q6.44,14.16,12.14,28.23a1.28,1.28,0,0,0,.9.79Zm18.7,4.8c4.91,1.14,9.77,2.19,14.61,3.17a1.32,1.32,0,0,0,1.29-.45,1.29,1.29,0,0,0,.23-1.33c-4-10.71-8.2-21.39-12.41-32.05a1.32,1.32,0,0,0-1.09-.84q-7.31-.84-14.62-1.73a1.34,1.34,0,0,0-1.4,1.85q6.48,15.28,12.45,30.56a1.3,1.3,0,0,0,.94.82Zm18.44,3.92a1.3,1.3,0,0,1-1-.84q-6.09-16.23-12.48-32.33a1.3,1.3,0,0,1,.18-1.31,1.31,1.31,0,0,1,1.21-.51l14.79,1.73a1.3,1.3,0,0,1,1.09.87L256,252.14a1.35,1.35,0,0,1-1.5,1.78Z"/><path class="cls-1" d="M189.63,263c12.73,25.17,99.89,40.06,98.89,24.18C242.3,242.08,239,145.06,242.14,108.07c17-4.63,33.17-15.45,28.68-35.82-5.27-23.93-101.3-12.44-148.25-4.6C59.4,78.2,126.7,242.73,189.63,263Z"/><path class="cls-5" d="M189.63,263c6.09,12,29.22,21.73,51.58,26.82l44,1.87c2.25-1.06,3.47-2.55,3.35-4.51-20.6-20.1-32.68-50.52-39.47-81.34-9.91,10.51-31.76,26.63-57.68,1.8a92.82,92.82,0,0,1-18.46,8.15l-1,37.95A65.2,65.2,0,0,0,189.63,263Z"/><path class="cls-4" d="M242.14,108.07c39.94,5.52,34.85-38.9,20.54-42.44C252.61,63.14,238.29,76.27,242.14,108.07Z"/><path class="cls-1" d="M262.68,65.63s10.44,4.74,9.34,18-18.28,23.12-20.74,15.11,7.83-12.82,9.56-8.19c0,0-1.31-7.89-6.73-6.71h0C235.11,88,242,111,255.72,108c7.55-1.67,15.66-6.46,19-16.22C279,79.56,272.37,65.86,262.68,65.63Z"/><path class="cls-6" d="M107.15,119.41s122.2-5,122.81-2.67,1.65,71.55,16.77,108.42c0,0,5.14,5.72-5.19,5.11S152.6,230,152.6,230,109.29,169.28,107.15,119.41Z"/><path class="cls-7" d="M242.26,212a125.15,125.15,0,0,0,4.47,13.13s5.14,5.72-5.19,5.11S152.6,230,152.6,230,150,226.35,146,220.1c24.55.41,45.35-12.47,45.35-12.47C212.42,227.8,230.79,221,242.26,212Z"/><path class="cls-1" d="M221.14,120.17,226,120a.53.53,0,0,1,.54.41l1,4.31a.52.52,0,0,1-.4.64l-.49.11a.52.52,0,0,1-.64-.4l-.36-1.54a.54.54,0,0,0-.93-.23l-2.59,3a.53.53,0,0,1-.75.05l-.39-.32a.55.55,0,0,1-.06-.76l2.34-2.73a.51.51,0,0,0,.07-.58.52.52,0,0,0-.5-.3l-1.63.07a.54.54,0,0,1-.56-.52l0-.5a.51.51,0,0,1,.14-.39A.53.53,0,0,1,221.14,120.17Z"/><path class="cls-8" d="M208.89,128.46l.06,1.86v.11a.81.81,0,0,1-.77.83h-.11q-9.18.31-18.34.67h-.11a.8.8,0,0,1-.83-.78V131a5.53,5.53,0,0,1,.4-3c.32-.46,1-.47,1.5-.52.7-.06,1.4-.09,2.1-.13,2.05-.09,4.11-.14,6.16-.16s4,0,6,0c.76,0,3,0,3.58.51l0,0a.8.8,0,0,1,.3.6Z"/><path class="cls-8" d="M185.25,129c0,.74,0,1.47,0,2.21v.11a.8.8,0,0,1-.77.81h-.11c-7,.23-14,.43-21,.56h-.11a.77.77,0,0,1-.57-.23.74.74,0,0,1-.24-.56v-.11c0-1.05-.19-2.71.82-3.37.48-.32,3.16-.3,3.77-.32,2.33-.07,4.66-.11,7-.14s4.63,0,6.94,0c.72,0,3.36-.08,3.92.37l0,0a.78.78,0,0,1,.29.61Z"/><path class="cls-8" d="M219.18,137.26l.09,1.85v.12a.75.75,0,0,1-.21.57.71.71,0,0,1-.56.26h-.11q-8.08.31-16.16.71h-.11a.77.77,0,0,1-.58-.21.76.76,0,0,1-.26-.56v-.11c0-.77-.07-1.55-.1-2.32v-.11a.8.8,0,0,1,.77-.83H202c2.7-.13,5.4-.25,8.1-.33,1.63-.05,3.26-.08,4.89-.08a23.91,23.91,0,0,1,3.39.17l.09,0a.8.8,0,0,1,.67.75Z"/><path class="cls-8" d="M199.51,138.15c0,.61.06,1.23.08,1.85v.11a.81.81,0,0,1-.76.84h-.11c-16.95.83-33.9,1.56-50.86,1.78h-.11A.79.79,0,0,1,147,142v-.1c-.06-1-.32-2.7.67-3.37a9.54,9.54,0,0,1,2.69-.26l5.73-.18c5.77-.18,11.54-.33,17.31-.48s11.46-.27,17.19-.36c1.91,0,3.84,0,5.75,0,.59,0,2.39-.08,2.86.27l.05,0a.78.78,0,0,1,.32.61Z"/><path class="cls-8" d="M144.44,142.77c-7.6.09-15.21.17-22.81.35h-.11a.8.8,0,0,1-.82-.76v-.11c0-1.18-.33-3,1-3.55a23.47,23.47,0,0,1,4.07-.32c2.47-.09,4.94-.14,7.42-.18s5.09-.07,7.64-.06a16.71,16.71,0,0,1,4,.21.79.79,0,0,1,.51.71v.05c0,.9-.07,1.82,0,2.71v.11a.8.8,0,0,1-.79.84Z"/><path class="cls-8" d="M202.64,149.6c0,.61.07,1.23.1,1.84v.11a.77.77,0,0,1-.21.58.75.75,0,0,1-.55.27h-.12c-7.16.35-14.33.71-21.49,1h-.11a.81.81,0,0,1-.84-.75v-.11l-.15-2.3v-.11a.76.76,0,0,1,.2-.59.8.8,0,0,1,.56-.26h.11c3.52-.16,7-.45,10.58-.63,1.72-.1,10.32-.69,11.55.22l0,0a.77.77,0,0,1,.32.6Z"/><path class="cls-7" d="M175.33,150.89l.12,1.83v.11a.78.78,0,0,1-.21.59.77.77,0,0,1-.56.27h-.11c-11.54.45-23.08.65-34.62.81h-.11a.81.81,0,0,1-.81-.76v-.11c-.07-1.26-.36-3.22,1.28-3.62a12.67,12.67,0,0,1,2-.11c1.3,0,2.6,0,3.9,0,3.76,0,7.52,0,11.29,0s7.76,0,11.64.08l3.85,0a5,5,0,0,1,2,.22l0,0a.75.75,0,0,1,.33.6Z"/><path class="cls-7" d="M124.81,150.64c2.2,0,10.28-.87,11.72.5l0,0a.79.79,0,0,1,.24.54v0c.05,1.05.17,2.49-1,3-.39.16-4.94.12-5.57.12l-3.58,0a5.39,5.39,0,0,1-2.12-.17.8.8,0,0,1-.37-.4,10.15,10.15,0,0,1-.25-2.73v-.11a.8.8,0,0,1,.21-.59.76.76,0,0,1,.57-.25Z"/><path class="cls-8" d="M208.82,163.89l-.15-2.31v-.11a.73.73,0,0,1,.2-.58.75.75,0,0,1,.56-.27h.11q6.39-.31,12.79-.58h.11a.8.8,0,0,1,.83.76l.14,2.53a.8.8,0,0,1-.77.85h-.11c-4.25.18-8.51.36-12.76.57h-.11a.81.81,0,0,1-.84-.76Z"/><path class="cls-8" d="M167.43,166c-.07-.76-.13-1.52-.19-2.28v-.11a.77.77,0,0,1,.19-.6.77.77,0,0,1,.57-.27h.12c2.37-.09,4.76-.27,7.13-.41,4-.24,7.92-.48,11.88-.69,4.35-.24,8.7-.46,13-.58,1.14,0,6.19-.27,7.07.36l0,0a.8.8,0,0,1,.34.6v.06l.12,1.84V164a.73.73,0,0,1-.2.58.75.75,0,0,1-.55.27h-.12c-12.83.66-25.66,1.39-38.5,1.92h-.1a.79.79,0,0,1-.83-.73Z"/><path class="cls-7" d="M164.32,164.19c.05.6.1,1.21.16,1.81v.12a.81.81,0,0,1-.2.6.79.79,0,0,1-.57.27h-.12c-11,.39-22,.64-33.07,1h-.11a.81.81,0,0,1-.83-.75v-.11c-.07-.95-.3-2.5.46-3.23.41-.38,1.55-.33,2.07-.35,1.24-.05,2.49-.08,3.73-.11,3.73-.08,7.46-.13,11.19-.17s7.42-.07,11.13-.06c1.25,0,2.5,0,3.74,0a4.55,4.55,0,0,1,2.06.29l0,0a.78.78,0,0,1,.31.57Z"/><path class="cls-7" d="M185.7,175.63c-.06-.76-.12-1.52-.19-2.28v-.11a.76.76,0,0,1,.19-.59.77.77,0,0,1,.56-.27h.12q19.67-1,39.34-1.84h.11a.81.81,0,0,1,.84.76l.13,2.54a.74.74,0,0,1-.2.58.8.8,0,0,1-.56.26h-.11q-19.65.83-39.28,1.8h-.11a.8.8,0,0,1-.83-.74Z"/><path class="cls-8" d="M183.16,173.87l.15,1.82v.11a.77.77,0,0,1-.19.6.77.77,0,0,1-.57.27h-.11c-15,.7-30.11,1.18-45.17,1.72h-.11a.78.78,0,0,1-.82-.74v-.11c-.05-.77-.11-1.53-.16-2.3v-.12a.81.81,0,0,1,.21-.59.77.77,0,0,1,.57-.26h.11c7.49-.25,15-.53,22.48-.76q7.22-.24,14.43-.41c1.76,0,3.53-.08,5.3-.1,1,0,2,0,3,0h.1a.8.8,0,0,1,.75.73Z"/><path class="cls-8" d="M172.7,185.35l.12,1.83v.12a.76.76,0,0,1-.2.59.8.8,0,0,1-.57.26h-.12c-10.12.26-20.24.2-30.36.47h-.11a.8.8,0,0,1-.82-.78v-.11c0-1.06-.27-2.83.76-3.5a4.74,4.74,0,0,1,1.81-.16h3.39c3.42,0,6.84,0,10.26.06s6.77.06,10.16.14c.77,0,4.76,0,5.34.41l0,0a.79.79,0,0,1,.31.58Z"/><path class="cls-8" d="M159.79,128.93c0,1.21-.06,2.84-1.48,3.25a28,28,0,0,1-5,.36c-2.86.08-5.71.11-8.57.14l-7.79,0c-1.66,0-3.34,0-5,.07h-.11a.76.76,0,0,1-.8-.75v-.11c0-1-.26-2.67.69-3.37.55-.4,4.07-.38,4.78-.4q4.53-.12,9.05-.18c3,0,6-.08,9-.07,1,0,2,0,3,0,.49,0,1.4,0,1.78.31l0,0a.74.74,0,0,1,.27.59Z"/><path class="cls-8" d="M103.64,95.13c.3,0,105.57-6.71,125-4.21.24,0,3.77.16,4,4.89a25.86,25.86,0,0,1-.65,7.88c-.53,1.91-1.41,3.4-2.76,4-1.57.66-37.4,2.64-70.15,4.08-27.56,1.21-53,2-54,1.35-1.3-.83-2.6-6-3-10.56a26.63,26.63,0,0,1-.08-3.94,6.5,6.5,0,0,1,.64-2.75,1.31,1.31,0,0,1,1-.7Zm125-3.59C209.28,89,104,95.74,103.68,95.76a.73.73,0,0,0-.52.4,6.08,6.08,0,0,0-.55,2.46,26.8,26.8,0,0,0,.08,3.85c.38,4.39,1.57,9.35,2.71,10.08.95.61,26.23-.24,53.69-1.45,32.7-1.44,68.43-3.4,69.94-4,1.15-.48,1.92-1.83,2.41-3.55a25.18,25.18,0,0,0,.63-7.68c-.23-4.29-3.42-4.29-3.43-4.29Z"/><path class="cls-8" d="M106.58,99.37c-.06,3.37,0,6.7.2,10a.65.65,0,0,0,.3.48,1,1,0,0,0,.54.16c5.92.33,7.6-3.64,2-6.12,5,1.21,6.43-6.37-2.49-5.07A.55.55,0,0,0,106.58,99.37Z"/><path class="cls-8" d="M121.32,101.18,119.94,107a.5.5,0,0,1-.5.4l-1.55.09a.49.49,0,0,0-.51.44l0,.15a.68.68,0,0,0,.22.58.81.81,0,0,0,.61.24l5.8-.37a.52.52,0,0,0,.51-.47V108a.71.71,0,0,0-.23-.57.81.81,0,0,0-.6-.23l-.53,0a.79.79,0,0,1-.63-.27.66.66,0,0,1-.19-.61l1.35-5.54a.5.5,0,0,1,.46-.39l2.23-.27a.5.5,0,0,0,.47-.45l.1-.78a.67.67,0,0,0-.23-.58.79.79,0,0,0-.62-.23l-6.66.6a.5.5,0,0,0-.49.47l0,.41a.66.66,0,0,0,.24.57.77.77,0,0,0,.6.22l.73,0a.76.76,0,0,1,.64.26A.64.64,0,0,1,121.32,101.18Z"/><path class="cls-8" d="M132,106.75l9.22-.52a.65.65,0,0,1,.68.62l0,.61a.65.65,0,0,1-.61.69l-9.22.51a.65.65,0,0,1-.69-.61l0-.62a.63.63,0,0,1,.16-.47.64.64,0,0,1,.45-.21Zm.68-4.14,12.57-.7a.66.66,0,0,1,.69.62l0,.61a.62.62,0,0,1-.17.47.61.61,0,0,1-.45.22l-12.57.7a.66.66,0,0,1-.69-.61l0-.62a.62.62,0,0,1,.16-.47.65.65,0,0,1,.45-.22Zm.64-3.54,6.89-.38a.65.65,0,0,1,.69.61l0,.62a.63.63,0,0,1-.16.47.64.64,0,0,1-.45.21l-6.89.39a.66.66,0,0,1-.69-.62l0-.61a.62.62,0,0,1,.17-.47A.61.61,0,0,1,133.31,99.07Z"/><path class="cls-8" d="M153.23,98.21l5.81-.32a.65.65,0,0,1,.68.61l0,.62a.62.62,0,0,1-.17.47.65.65,0,0,1-.45.22l-5.81.32a.65.65,0,0,1-.68-.61l0-.62a.64.64,0,0,1,.17-.47.69.69,0,0,1,.45-.22Zm-.48,7.28,7.6-.43a.66.66,0,0,1,.69.61l0,.62a.65.65,0,0,1-.61.69l-7.6.42a.65.65,0,0,1-.69-.61l0-.62a.63.63,0,0,1,.16-.47.64.64,0,0,1,.45-.21Zm-2.34-3.69,12.57-.7a.66.66,0,0,1,.69.61l0,.62a.62.62,0,0,1-.16.47.65.65,0,0,1-.45.22l-12.57.7a.66.66,0,0,1-.69-.62l0-.61A.62.62,0,0,1,150,102,.61.61,0,0,1,150.41,101.8Z"/><path class="cls-8" d="M182.59,103.38l-9.06.56a.75.75,0,0,0-.68.7l0,.63a.6.6,0,0,0,.15.46.52.52,0,0,0,.44.17l9.05-.55a.78.78,0,0,0,.69-.71l.05-.63a.58.58,0,0,0-.16-.46.53.53,0,0,0-.43-.17ZM182,99.25l-12.35.75a.77.77,0,0,0-.68.71l-.05.63a.56.56,0,0,0,.15.46.55.55,0,0,0,.44.17l12.34-.76a.77.77,0,0,0,.69-.7l.05-.63a.6.6,0,0,0-.16-.47.52.52,0,0,0-.43-.16Zm-.56-3.54-6.76.41a.79.79,0,0,0-.69.71l-.05.63a.6.6,0,0,0,.15.46.53.53,0,0,0,.44.17l6.77-.41A.79.79,0,0,0,182,97l0-.63a.53.53,0,0,0-.15-.46A.5.5,0,0,0,181.44,95.71Z"/><path class="cls-8" d="M218.17,100c2.17-.82,3.94,3.72.37,4-4.79.34-5.22-6.06-.94-7.77a.58.58,0,0,1,.68.18.59.59,0,0,1,0,.71,4.17,4.17,0,0,0-.92,2.36.6.6,0,0,0,.26.48.58.58,0,0,0,.54.07Zm7.23.11a.56.56,0,0,1-.53-.07.55.55,0,0,1-.26-.47,4.17,4.17,0,0,1,.92-2.37.6.6,0,0,0,0-.71.59.59,0,0,0-.69-.18c-4.27,1.72-3.85,8.11.95,7.77C229.34,103.82,227.57,99.28,225.4,100.1Z"/><path class="cls-8" d="M189.91,98a5.58,5.58,0,0,1,2.64-1.12,2.84,2.84,0,0,1,2.76,2.89c.23,2.22.87,1.57.87,1.57l.06,1.62s-1.94.94-2.17-.7a2.89,2.89,0,0,1-2.87,1.57c-2.11-.15-1.92-2.59-1.23-3.28s3-1.67,3.67-.89a1.75,1.75,0,0,0-2.77-.3l-1-1.36Zm19.64-1.28s-2.39-2.3-4.39-.37-1.19,5.45.65,5.82,3.63-1.22,3.63-1.22l-.87-1.26s-2.54,2-2.87-.29,1.75-2.74,2.23-1.6l1.62-1.08ZM197.4,94.85a11.2,11.2,0,0,1,2.23-.49l-.43,3.83c4.07-3,5.08,1.71,3.75,3.71s-3.55.28-3.55.28l0,1-2.22.16.18-8.46Zm2,4.8s0,.95.57,1.26,2.14-.25,1.75-1.52-2.32.26-2.32.26ZM193.28,101s-2.75-.13-2.39.87,2.46.09,2.53-.31A.58.58,0,0,0,193.28,101Z"/><path class="cls-9" d="M211.16,69.63c.88-2,20.65-3.22,19.33.69A106.06,106.06,0,0,0,227,83.38c-.62,3.47-17.62,2.36-18,.18S209.23,74.69,211.16,69.63Z"/><path class="cls-1" d="M213,74.8l10-3.16a.71.71,0,0,1,.89.89l-2.68,8.67a.72.72,0,0,1-1.11.36l-3.22-2.42a.73.73,0,0,1-.29-.52.69.69,0,0,1,.22-.56l3-2.91-4.71,2.16a.69.69,0,0,1-.73-.08l-1.58-1.18a.69.69,0,0,1-.27-.69A.68.68,0,0,1,213,74.8Z"/><path class="cls-6" d="M114,78.69s58.23-4.65,60.44-4.41.79,12.85-1.2,13.09-62.5,5.51-64.12,3.18S109.25,79.77,114,78.69Z"/><path class="cls-9" d="M189.3,216.44l77.12,8.38c2.07.17,8.38,1.84,5.85,10.08a39.62,39.62,0,0,0-9-1.7c-5.66,20.45,0,48.16,15.6,58.21l-74.28-3.15Z"/><path class="cls-10" d="M189.3,216.44l55.38,6c-10,20.27-20.8,56.13,18.51,68.28l-58.64-2.48Z"/><path class="cls-4" d="M272.27,234.9a39.62,39.62,0,0,0-9-1.7C267.44,221.6,273.25,229.22,272.27,234.9Z"/><path class="cls-7" d="M151.65,196.9l32.68,2.44a1.32,1.32,0,0,1,1.16,1.61,24.65,24.65,0,0,0,.65,9.72l-34.79-1.94Z"/><path class="cls-4" d="M155.05,205.44c18.22,1.33,36.67,1.6,72.57,5.32-1.23,78.85,34.87,79.95,55.68,80.84l-98.1-4.17c-33.26-12.25-84.49-48.12-96.4-95.48l64.46,3.61a1.21,1.21,0,0,1,.91.52,1.34,1.34,0,0,1,.26,1A18.25,18.25,0,0,0,155.05,205.44Z"/><path class="cls-1" d="M114.62,218.66c-4.15-.31-4.38-4.38-1.47-4.16l18.61,1.42c2.48.19,3.19,4.29,1.47,4.16Z"/><path class="cls-2" d="M133,230.6a2.27,2.27,0,0,1-2.13-2.18,1.92,1.92,0,0,1,2.08-1.93l25.46,1.5a2,2,0,0,1,1.38.66,1.91,1.91,0,0,1,.55,1.39v.39a1.73,1.73,0,0,1-1.88,1.67L133,230.6Zm36.23-2,21.81,1.29a2.07,2.07,0,0,1,1.93,1.9l0,.39a1.66,1.66,0,0,1-.52,1.33,1.71,1.71,0,0,1-1.36.49l-21.86-1.29a2,2,0,0,1-1.43-.7,1.88,1.88,0,0,1-.5-1.46l0-.39a1.72,1.72,0,0,1,1.87-1.56Zm30.49,1.8,13.79.81a2.27,2.27,0,0,1,2.13,2.18,1.9,1.9,0,0,1-2.07,1.93l-13.81-.81a2,2,0,0,1-1.36-.64,1.91,1.91,0,0,1-.57-1.37v-.39A1.72,1.72,0,0,1,199.76,230.43Z"/><path class="cls-2" d="M140,241.23a2.28,2.28,0,0,1-2.15-2.17,1.91,1.91,0,0,1,2-2l11.89.62a2,2,0,0,1,1.38.65,2,2,0,0,1,.57,1.4v.39a1.71,1.71,0,0,1-1.85,1.69L140,241.23Zm24-2.89,22.64,1.17a2.29,2.29,0,0,1,2.15,2.18,1.89,1.89,0,0,1-2,2l-22.63-1.17a2.07,2.07,0,0,1-1.94-1.91l0-.39a1.65,1.65,0,0,1,.5-1.34A1.68,1.68,0,0,1,164,238.34Z"/><path class="cls-7" d="M150.93,251.45a2.82,2.82,0,0,1-2.53-2.15,1.57,1.57,0,0,1,1.78-1.9l18.64,1a2.82,2.82,0,0,1,2.53,2.14,1.58,1.58,0,0,1-1.78,1.91Z"/><path class="cls-1" d="M147.41,259.62c-4.32-.34-4.2-4.45-1.7-4.26l15,1.21c2.19.17,3.68,4.41,1.7,4.26Z"/><path class="cls-7" d="M175.74,267a2.37,2.37,0,0,1-2.25-2.14,1.84,1.84,0,0,1,2-2l5.66.22a2.15,2.15,0,0,1,2,1.82l.06.39a1.62,1.62,0,0,1-.42,1.38,1.66,1.66,0,0,1-1.35.54l-5.68-.23Zm13.06-3.59,28,1.12a2.39,2.39,0,0,1,2.25,2.15,1.85,1.85,0,0,1-2,2l-27.95-1.12a2.15,2.15,0,0,1-2-1.86l0-.39a1.6,1.6,0,0,1,.43-1.35A1.68,1.68,0,0,1,188.8,263.45Z"/><path class="cls-2" d="M178.19,275.66a2.5,2.5,0,0,1-2.31-2.17,1.75,1.75,0,0,1,1.87-2l14.68.67a2.49,2.49,0,0,1,2.3,2.17,1.75,1.75,0,0,1-1.87,2Z"/><path class="cls-9" d="M146.7,198.27a3.39,3.39,0,0,1,3.62,2.53,2.57,2.57,0,0,1-2.24,3.24,3.4,3.4,0,0,1-3.61-2.53A2.57,2.57,0,0,1,146.7,198.27Z"/><path class="cls-9" d="M218.08,249.31l-2.31,3.24a1.17,1.17,0,0,0,.93,1.86l5.23.12a1.14,1.14,0,0,0,1.09-.67,1.16,1.16,0,0,0-.17-1.28l-2.92-3.36a1.18,1.18,0,0,0-1.85.09Z"/><path class="cls-2" d="M277.24,284.75s45.7-81.45,50.69-196.51c0,0,214.53,43.29,255.34,61.28-34.72,63.92-196,67.66-198,139.63a6.68,6.68,0,0,1-7,6.48l-104.91-4.45Z"/><path class="cls-3" d="M277.24,284.75s9.37-16.7,20.09-45.65c15,18.31,45.32,35.5,104.79,15.19-10.14,9.7-16.42,21-16.81,34.86a6.68,6.68,0,0,1-7,6.48l-104.91-4.45Z"/><path class="cls-1" d="M325.74,117.7c1-9.54,1.76-19.37,2.19-29.46,0,0,214.53,43.29,255.34,61.28a80.8,80.8,0,0,1-15.1,19.55C527.9,153.94,358.71,123.54,325.74,117.7Z"/><path class="cls-9" d="M339.81,100.94a6.06,6.06,0,1,1-4.36,7.37A6.05,6.05,0,0,1,339.81,100.94Z"/><path class="cls-2" d="M373.09,109.06a6.05,6.05,0,1,1-4.36,7.37A6,6,0,0,1,373.09,109.06Z"/><path class="cls-11" d="M355.91,104.68a6.06,6.06,0,1,1-4.36,7.37A6.05,6.05,0,0,1,355.91,104.68Z"/><path class="cls-3" d="M292.51,273.92c17.59-33.12,49.06-144.61,44-141.37,7.31,1.72,83.77,19,94.08,22.26,1.53.49-71.76,91-80.8,121.07a2.63,2.63,0,0,1-2.48,1.9c-23.71.64-31.45-.11-52.35-.27a2.61,2.61,0,0,1-2.17-1.15A2.35,2.35,0,0,1,292.51,273.92Z"/><path class="cls-4" d="M292.51,273.92c3.5-6.59,7.55-16.29,11.75-27.56,10.84,9.68,27,17.49,51,17.08a75.85,75.85,0,0,0-5.4,12.44,2.63,2.63,0,0,1-2.48,1.9c-23.71.64-31.45-.11-52.35-.27a2.61,2.61,0,0,1-2.17-1.15A2.35,2.35,0,0,1,292.51,273.92Z"/><path class="cls-4" d="M292.23,273.77c12.24-23,31.2-84,39.9-117.91,1.8-7,3.16-12.82,3.93-16.91.63-3.34.91-5.46.78-6l-1.08-.25.62-.4a.65.65,0,0,1,.42-.12.37.37,0,0,1,.28.18l10.57,2.42c23.4,5.35,74.74,17.08,83.08,19.74.23.08.3.25.21.52-.32,1-5.26,7.57-12.59,17.29-21,27.87-61.65,81.81-68.22,103.65a3,3,0,0,1-1,1.52,2.9,2.9,0,0,1-1.74.6c-15.83.43-24.54.24-34.81,0-5.1-.11-10.58-.23-17.54-.29a2.91,2.91,0,0,1-1.38-.34,2.85,2.85,0,0,1-1.05-.94,3.19,3.19,0,0,1-.57-1.41,2.25,2.25,0,0,1,.23-1.36ZM332.74,156c-8.71,33.88-27.69,95-39.95,118a1.67,1.67,0,0,0-.17,1,2.63,2.63,0,0,0,.46,1.13,2.4,2.4,0,0,0,.84.75,2.3,2.3,0,0,0,1.08.26c6.93.06,12.44.18,17.55.29,10.26.22,19,.41,34.79,0a2.33,2.33,0,0,0,1.37-.47,2.38,2.38,0,0,0,.82-1.2c6.6-22,47.29-75.94,68.32-103.85,6.9-9.16,11.68-15.5,12.41-16.91-9.09-2.82-59.6-14.35-82.75-19.64l-10.21-2.34a23.68,23.68,0,0,1-.63,6C335.9,143.18,334.54,149,332.74,156Z"/><path class="cls-1" d="M346.9,192.1c1.73,4.26,25.92,9.08,31,9.78,5.92-12,8.37-18.83,15.95-31.11,3-4.89-33.67-16.67-34-16.47C358,154.35,345.67,189.05,346.9,192.1Z"/><path class="cls-4" d="M376,194.58c-.54,5.08-9.9,1-13.25-.48-6.26-2.74-14.76-5.81-7.53-10.53,11.07-7.22,22-.57,20.78,11Zm-11.37-25.19c-4.58,7.82,8.93,15.9,13.64,7.16,3-5.51.1-9.52-3.36-10.8A8.82,8.82,0,0,0,364.67,169.39Z"/><path class="cls-1" d="M326.44,199.22c1.91-.49,3.73,1.23,4.22,3.15a3.57,3.57,0,0,1-2.57,4.35c-1.91.49-3.74-1.24-4.23-3.15A3.57,3.57,0,0,1,326.44,199.22Z"/><path class="cls-1" d="M320.14,216.38c1.91-.49,3.62,1.21,4.11,3.12a3.57,3.57,0,0,1-2.57,4.35c-1.92.49-3.63-1.21-4.12-3.12A3.58,3.58,0,0,1,320.14,216.38Z"/><path class="cls-1" d="M314.63,232.28c1.91-.49,3.49,1.14,4,3.05a3.57,3.57,0,0,1-2.57,4.35c-1.92.49-3.5-1.13-4-3.05A3.57,3.57,0,0,1,314.63,232.28Z"/><path class="cls-1" d="M334.81,207a2.36,2.36,0,0,1,2.15-4.2c.07,0,22.21,11.45,36,14.44a2.36,2.36,0,1,1-1,4.61C357.55,218.71,334.88,207,334.81,207Z"/><path class="cls-1" d="M332.43,212.17a1.57,1.57,0,1,1,1.67-2.67s8.72,5.46,14.84,7.78a1.58,1.58,0,1,1-1.11,2.95C341.42,217.8,332.46,212.19,332.43,212.17Z"/><path class="cls-1" d="M352.22,221a1.58,1.58,0,0,1,1.94-1.1c1.79,1.35,8,2.93,10.89,3.13a1.57,1.57,0,0,1-1,3C362.34,225.75,351.41,223.91,352.22,221Z"/><path class="cls-1" d="M328.1,223.17a2.36,2.36,0,0,1,2.09-4.24c-.2.82,14.64,8.86,28.85,12.49a2.36,2.36,0,0,1-1.61,4.44C343,231.68,327.91,223.74,328.1,223.17Z"/><path class="cls-1" d="M326.13,229a1.57,1.57,0,1,1,1.4-2.82s6.53,3.28,12,5.83a1.57,1.57,0,1,1-1.32,2.86C333,232.4,326.15,229,326.13,229Z"/><path class="cls-1" d="M322.34,240.33a2.36,2.36,0,0,1,2.93-3.71c10.47,6.46,23,9.06,29.59,11.37,1,.79,1.53,1.76.74,2.8a3.12,3.12,0,0,1-3.61,1C342.85,249.49,334.31,247.15,322.34,240.33Z"/><path class="cls-1" d="M319.59,246.21a1.57,1.57,0,0,1,1.82-2.57s9.24,5.39,17,7.58a1.57,1.57,0,1,1-.85,3C329.26,251.91,319.62,246.23,319.59,246.21Z"/><path class="cls-3" d="M439.09,156.44c9.73,1.05,52,6.61,102.86,23.12.95.3,1.24,1.47,1.14,2.46a2.63,2.63,0,0,1-1.6,2.19C530.27,189,483.66,209.68,464.72,217a2.54,2.54,0,0,1-1.84,0c-5.47-1.89-34-11.71-51.76-17a2.68,2.68,0,0,1-1.28-4.28,323.16,323.16,0,0,0,26.67-38.06A2.63,2.63,0,0,1,439.09,156.44Z"/><path class="cls-4" d="M438.1,167.83a2.36,2.36,0,0,1,.78-4.66c18.14,3,23.18,3.68,45,12.31a2.36,2.36,0,0,1-2.55,4C462.77,171.67,455.56,170.72,438.1,167.83Z"/><path class="cls-2" d="M435.18,175.1a2.36,2.36,0,0,1-2-2.7c.79-5,26.47,3,29.31,3.91a2.36,2.36,0,1,1-2,4.29C447.59,176.14,434.44,175.39,435.18,175.1Z"/><path class="cls-4" d="M455.67,211a2.08,2.08,0,0,1-1.31-2.81,2.35,2.35,0,0,1,3.07-1.32l7.8,3.1a2.65,2.65,0,0,1,1.61,3.18c-.48,1.22-2.16,1.43-3.37,1Z"/><path class="cls-4" d="M406.7,203.69c7,.62,34.81,7.74,45.23,13.67a2.65,2.65,0,0,1,1.64,2.55c-.14,4.38-55.32,16.77-70.26,58.81a2.64,2.64,0,0,1-2.83,1.76L357,277.75a2.63,2.63,0,0,1-2-1.34,2.59,2.59,0,0,1-.1-2.42c5-10.88,22.24-45.92,49.23-69.78A2.61,2.61,0,0,1,406.7,203.69Z"/><path class="cls-11" d="M421.66,218.91a1.57,1.57,0,1,1,.61-3.09l.26.05a49.21,49.21,0,0,1,13.92,6,1.75,1.75,0,0,1,.37,2.33,1.58,1.58,0,0,1-2.17.51A48.68,48.68,0,0,0,421.93,219Z"/><path class="cls-11" d="M417.86,222.27c-1-.8-.18-2.49,1.49-2.14a37.58,37.58,0,0,1,8.38,2.92,1.59,1.59,0,0,1,.36,2.2,1.63,1.63,0,0,1-2.2.36C424.27,224.68,420.44,224,417.86,222.27Z"/><path class="cls-2" d="M401.16,229.74a1.74,1.74,0,0,1-1.32-1.92,1.45,1.45,0,0,1,1.92-1l.28.08a61.87,61.87,0,0,1,14.65,7.33,1.64,1.64,0,0,1,.41,2.26,1.66,1.66,0,0,1-2.27.23,61.1,61.1,0,0,0-13.39-6.93Z"/><path class="cls-2" d="M390.39,231.22a1.58,1.58,0,1,1,.76-3.06l.26.06A49.32,49.32,0,0,1,405,234.85a1.74,1.74,0,0,1,.25,2.34,1.58,1.58,0,0,1-2.19.41,48.34,48.34,0,0,0-12.43-6.32Z"/><path class="cls-11" d="M398.2,241a1.69,1.69,0,0,1-1.25-1.85c.47-2.38,3.34-.74,4.71-.1a27.48,27.48,0,0,1,2.84,1.6,1.75,1.75,0,0,1,.37,2.33,1.58,1.58,0,0,1-2.17.51A21.62,21.62,0,0,0,398.2,241Z"/><path class="cls-2" d="M386.92,244a1.69,1.69,0,0,1-1.24-1.85c.46-2.38,3.33-.74,4.71-.1a28.59,28.59,0,0,1,2.84,1.6,1.74,1.74,0,0,1,.36,2.33,1.58,1.58,0,0,1-2.17.51A21.37,21.37,0,0,0,386.92,244Z"/><path class="cls-3" d="M370.16,257.56a1.68,1.68,0,0,1-1.24-1.85c.46-2.38,3.33-.74,4.71-.09a25.67,25.67,0,0,1,2.84,1.6,1.72,1.72,0,0,1,.36,2.32,1.56,1.56,0,0,1-2.16.51A22.15,22.15,0,0,0,370.16,257.56Z"/><path class="cls-11" d="M416,214.12c0,2.77-2.74,5.1-6,5.19s-5.95-2.07-5.91-4.85,2.74-5.1,6-5.19S416.06,211.34,416,214.12Z"/><path class="cls-1" d="M278.83,291.83c4.77-5.47,18.33-21.57,26.39-36.57,0,0,51.07,22.82,74.11,21.18,0,0-23.41,5.91-35.29,18.19Z"/><rect class="cls-12" x="277.74" y="186.94" width="0.71" height="208.77" transform="translate(-24.34 557.29) rotate(-87.66)"/><path class="cls-3" d="M143.63,361.42,128.73,369l5.13,7.77s2.47,2.33,8.75,2.3S411,385.65,411,385.65s5.76.88,9-7.75Z"/><path class="cls-2" d="M162.66,296.73l-33.5,69.4s-2.91,6.07,5.45,5.88,282.71,8.06,282.71,8.06,6.87-3.43,3.41-10.71-27.65-64.14-27.65-64.14Z"/><path class="cls-3" d="M185.37,302l12.18.55a1.25,1.25,0,0,1,1,.61,1.3,1.3,0,0,1,.1,1.21L197,308.54a1.22,1.22,0,0,1-1.18.79L180,308.85a1.24,1.24,0,0,1-1.06-.65,1.32,1.32,0,0,1,0-1.28l.76-1.5a6,6,0,0,1,5.72-3.39ZM355.8,334.85l5.56.14h0l22.85.55a1.18,1.18,0,0,0,1.05-.56,1.28,1.28,0,0,0,.12-1.23l-1.77-4.42-.3-.77v0h0l-2.28-5.7h0v0l-.43-1.08-1.23-3.06a1.23,1.23,0,0,0-1.14-.82l-20.14-.61a1.22,1.22,0,0,0-1,.47,1.33,1.33,0,0,0-.24,1.11l.57,2.62h0v0l.36,1.62a1.05,1.05,0,0,0,.05.19l.87,3.82-7.55-.06-19.45-.43a1.19,1.19,0,0,0-1,.42,1.32,1.32,0,0,0-.31,1l.6,5a1.3,1.3,0,0,0,1.24,1.16l23.47.57Zm-108.88.45h0l8.76.21h0l13.45.33h0l19.06.46a1.2,1.2,0,0,1,.89.42,1.28,1.28,0,0,1,.35.95l-.24,7.26a1.25,1.25,0,0,1-1.27,1.24L267,345.51l-6.74-.21h0l-5.44-.17h0L218.68,344a1.25,1.25,0,0,1-1-.53,1.32,1.32,0,0,1-.22-1.12l1.62-6.71a1.24,1.24,0,0,1,1.23-1l26.59.65ZM203.4,302.84l18.79.85a1.23,1.23,0,0,1,1,.53,1.34,1.34,0,0,1,.22,1.11l-.92,3.79a1.23,1.23,0,0,1-1.23,1l-19.5-.59a1.22,1.22,0,0,1-1-.6,1.35,1.35,0,0,1-.11-1.22l1.62-4.05a1.21,1.21,0,0,1,1.19-.79Zm24.39,1.1,31.77,1.43a1.22,1.22,0,0,1,.92.48,1.29,1.29,0,0,1,.29,1l-.42,3.24a1.24,1.24,0,0,1-1.26,1.11l-32.25-1a1.24,1.24,0,0,1-1-.52,1.32,1.32,0,0,1-.22-1.12l.9-3.7a1.22,1.22,0,0,1,1.25-1Zm37.26,1.68,24.15,1.09a1.19,1.19,0,0,1,.88.42,1.33,1.33,0,0,1,.34.95l-.09,2.79a1.25,1.25,0,0,1-1.27,1.24l-24.46-.73a1.22,1.22,0,0,1-.93-.46,1.31,1.31,0,0,1-.3-1l.41-3.15a1.23,1.23,0,0,1,1.27-1.11ZM294.67,307l29.4,1.33a1.3,1.3,0,0,1,1.21,1.16l.27,2.28a1.32,1.32,0,0,1-.31,1,1.17,1.17,0,0,1-.95.42l-29.76-.89a1.2,1.2,0,0,1-.89-.42,1.34,1.34,0,0,1-.35-.95l.09-2.72a1.26,1.26,0,0,1,1.29-1.24Zm34.92,1.58,21.23,1a1.29,1.29,0,0,1,1.19,1l.41,1.88a1.27,1.27,0,0,1-.24,1.1,1.17,1.17,0,0,1-1,.47l-21.38-.64a1.3,1.3,0,0,1-1.23-1.16l-.26-2.2a1.25,1.25,0,0,1,.32-1,1.14,1.14,0,0,1,1-.41Zm26.88,1.21,15.65.7a6.17,6.17,0,0,1,4.37,2.08,1.34,1.34,0,0,1,.24,1.42,1.2,1.2,0,0,1-1.17.76l-18.75-.56a1.3,1.3,0,0,1-1.21-1l-.39-1.8a1.29,1.29,0,0,1,.25-1.11,1.19,1.19,0,0,1,1-.46Zm31.24,29.77.28.7c3.18,8,2.88,9.23-5.88,9l-17.75-.56a1.29,1.29,0,0,1-1.21-1l-1.72-7.88a1.27,1.27,0,0,1,.24-1.1,1.17,1.17,0,0,1,1-.47l23.9.58a1.26,1.26,0,0,1,1.15.82Zm-29,8.91-24.85-.79a1.3,1.3,0,0,1-1.23-1.16l-.91-7.64a1.28,1.28,0,0,1,.31-1,1.16,1.16,0,0,1,.95-.42l24,.58a1.27,1.27,0,0,1,1.21,1l1.72,7.84a1.29,1.29,0,0,1-.25,1.11,1.17,1.17,0,0,1-1,.47Zm-30.37-1-34.95-1.11a1.23,1.23,0,0,1-.89-.42,1.34,1.34,0,0,1-.35-.95l.24-7.31a1.27,1.27,0,0,1,1.27-1.24l33.81.82a1.29,1.29,0,0,1,1.23,1.17l.91,7.59a1.32,1.32,0,0,1-.31,1,1.18,1.18,0,0,1-1,.42Zm-115.3-3.66L188.32,343a1.24,1.24,0,0,1-1-.6,1.35,1.35,0,0,1-.11-1.22l2.59-6.46a1.2,1.2,0,0,1,1.16-.79l23.78.57a1.25,1.25,0,0,1,1,.53,1.32,1.32,0,0,1,.22,1.12l-1.61,6.67a1.24,1.24,0,0,1-1.24,1Zm-30.62-1-11.26-.36c-9.87-.31-8-4.82-6.09-8.46a1.22,1.22,0,0,1,1.12-.67l18.82.45a1.27,1.27,0,0,1,1,.61,1.29,1.29,0,0,1,.11,1.22L183.61,342a1.22,1.22,0,0,1-1.17.79ZM168,328.39l2.35-4.62a1.21,1.21,0,0,1,1.12-.68l17.72.39a1.24,1.24,0,0,1,1,.6,1.34,1.34,0,0,1,.12,1.23L188.44,330a1.19,1.19,0,0,1-1.17.78l-18.21-.44a1.22,1.22,0,0,1-1.06-.65,1.33,1.33,0,0,1,0-1.28Zm5.22-10.25,2.86-5.62a1.2,1.2,0,0,1,1.12-.68l16.47.5a1.23,1.23,0,0,1,1,.6,1.35,1.35,0,0,1,.11,1.22l-2.2,5.5a1.22,1.22,0,0,1-1.17.79l-17.12-.38a1.24,1.24,0,0,1-1.07-.65,1.32,1.32,0,0,1,0-1.28Zm25.16-4.84-2.18,5.45a1.31,1.31,0,0,0,.11,1.23,1.23,1.23,0,0,0,1,.6l21.27.47a1.24,1.24,0,0,0,1.23-1l1.28-5.31a1.32,1.32,0,0,0-.22-1.12,1.22,1.22,0,0,0-1-.53l-20.37-.61a1.22,1.22,0,0,0-1.18.79Zm-4.44,11.1L192,329.08a1.31,1.31,0,0,0,.11,1.23,1.26,1.26,0,0,0,1,.6l22.88.55a1.22,1.22,0,0,0,1.22-1l1.15-4.75a1.32,1.32,0,0,0-.22-1.12,1.23,1.23,0,0,0-1-.53l-22.16-.49a1.2,1.2,0,0,0-1.16.79Zm27.78,7.2,34.71.84a1.23,1.23,0,0,0,1.25-1.11l.62-4.85a1.28,1.28,0,0,0-.3-1A1.2,1.2,0,0,0,257,325l-34.17-.75a1.21,1.21,0,0,0-1.22,1L220.47,330a1.35,1.35,0,0,0,.23,1.13,1.21,1.21,0,0,0,1,.52Zm40.22,1,26.48.64a1.26,1.26,0,0,0,1.26-1.24l.16-4.93a1.3,1.3,0,0,0-.35-1,1.17,1.17,0,0,0-.9-.41l-26-.58a1.24,1.24,0,0,0-1.25,1.12l-.62,4.86a1.33,1.33,0,0,0,.29,1,1.23,1.23,0,0,0,.94.47Zm32,.77,32.94.8a1.21,1.21,0,0,0,.95-.42,1.31,1.31,0,0,0,.3-1l-.59-5a1.3,1.3,0,0,0-1.24-1.16L294,325.8a1.25,1.25,0,0,0-1.26,1.24L292.6,332a1.32,1.32,0,0,0,.35.95,1.2,1.2,0,0,0,.9.42Zm-69.64-12.18,33.53.74A1.24,1.24,0,0,0,259,320.8l.64-5a1.29,1.29,0,0,0-.3-1,1.2,1.2,0,0,0-.93-.47l-32.89-1a1.23,1.23,0,0,0-1.24,1L223,319.53a1.32,1.32,0,0,0,.22,1.12,1.25,1.25,0,0,0,1,.52Zm39,.86,25.48.57a1.26,1.26,0,0,0,1.26-1.24l.15-4.8a1.29,1.29,0,0,0-.34-1,1.22,1.22,0,0,0-.89-.41l-25-.75a1.23,1.23,0,0,0-1.26,1.11l-.64,5a1.31,1.31,0,0,0,.3,1,1.19,1.19,0,0,0,.94.46Zm30.95.69,31.31.69a1.19,1.19,0,0,0,.95-.42,1.32,1.32,0,0,0,.31-1l-.54-4.53a1.31,1.31,0,0,0-1.23-1.17l-30.63-.91a1.24,1.24,0,0,0-1.26,1.24l-.16,4.75a1.3,1.3,0,0,0,.35,1,1.22,1.22,0,0,0,.9.42Zm36.82.81a1.3,1.3,0,0,1-1.24-1.17l-.53-4.48a1.28,1.28,0,0,1,.31-1,1.17,1.17,0,0,1,.95-.42l22,.66a1.27,1.27,0,0,1,1.21,1l.94,4.33a1.28,1.28,0,0,1-.24,1.1,1.17,1.17,0,0,1-1,.47Z"/><path class="cls-3" d="M244.25,347.83,313,349.2a1.37,1.37,0,0,1,1.29,1l5.87,20.83a1.18,1.18,0,0,1-.29,1.11,1.38,1.38,0,0,1-1.08.45L236,370.83a1.3,1.3,0,0,1-1.06-.6,1.24,1.24,0,0,1-.11-1.19L243,348.63A1.28,1.28,0,0,1,244.25,347.83Z"/><path class="cls-1" d="M476.64,279.42l19.3,4.39a9.16,9.16,0,0,1-4.07,17.87l-19.3-4.39a9.16,9.16,0,0,1,4.07-17.87Zm19.16,5L476.5,280a8.54,8.54,0,0,0-3.79,16.65l19.3,4.39a8.54,8.54,0,0,0,3.79-16.65Z"/><path class="cls-1" d="M476.14,281.94a6.6,6.6,0,1,1-7.89,5A6.59,6.59,0,0,1,476.14,281.94Z"/><path class="cls-1" d="M77.34,218.22a17.49,17.49,0,0,1,11.44,2.87,18.12,18.12,0,0,1,7.41,9.36,12.21,12.21,0,0,1-1,10.37,11.68,11.68,0,0,1-8.77,5.31A17.49,17.49,0,0,1,75,243.26a18.1,18.1,0,0,1-7.41-9.37,12.21,12.21,0,0,1,1-10.37,11.7,11.7,0,0,1,8.77-5.3Zm10.35,4.63a14.65,14.65,0,0,0-9.63-2.42,9.84,9.84,0,0,0-7.38,4.46,10.29,10.29,0,0,0-.81,8.73,15.14,15.14,0,0,0,6.24,7.88,14.65,14.65,0,0,0,9.63,2.42,9.82,9.82,0,0,0,7.38-4.47,10.26,10.26,0,0,0,.81-8.72A15.14,15.14,0,0,0,87.69,222.85Z"/><path class="cls-1" d="M62.78,196.05A11.6,11.6,0,0,1,70.41,198a12,12,0,0,1,5,6.24,8.13,8.13,0,0,1-.65,6.92,7.75,7.75,0,0,1-5.85,3.53,11.6,11.6,0,0,1-7.63-1.91,12.1,12.1,0,0,1-4.94-6.25,8.14,8.14,0,0,1,.64-6.91,7.82,7.82,0,0,1,5.85-3.54Zm6.91,3.08a9.87,9.87,0,0,0-6.43-1.61,6.58,6.58,0,0,0-4.92,3,6.84,6.84,0,0,0-.54,5.82A10.06,10.06,0,0,0,62,211.58a9.78,9.78,0,0,0,6.42,1.61,6.55,6.55,0,0,0,4.93-3,6.87,6.87,0,0,0,.54-5.82A10.24,10.24,0,0,0,69.69,199.13Z"/><path class="cls-1" d="M472.27,234.25a17.44,17.44,0,0,0-11.78-.46,18.1,18.1,0,0,0-9.74,6.91,12.2,12.2,0,0,0-2,10.23,11.71,11.71,0,0,0,6.93,7.55,17.46,17.46,0,0,0,11.79.45,18.14,18.14,0,0,0,9.74-6.91,12.27,12.27,0,0,0,2-10.23,11.69,11.69,0,0,0-6.94-7.54ZM461,235.78a14.73,14.73,0,0,1,9.92.38,9.83,9.83,0,0,1,5.84,6.36,10.27,10.27,0,0,1-1.67,8.6,15.17,15.17,0,0,1-8.19,5.82,14.77,14.77,0,0,1-9.93-.38,9.87,9.87,0,0,1-5.84-6.35,10.32,10.32,0,0,1,1.67-8.61A15.25,15.25,0,0,1,461,235.78Z"/><path class="cls-1" d="M492.46,217a11.64,11.64,0,0,0-7.86-.3,12,12,0,0,0-6.49,4.61,8.17,8.17,0,0,0-1.33,6.82,7.82,7.82,0,0,0,4.63,5,11.64,11.64,0,0,0,7.86.3,12.09,12.09,0,0,0,6.5-4.61,8.16,8.16,0,0,0,1.32-6.82,7.82,7.82,0,0,0-4.63-5Zm-7.49,1a9.76,9.76,0,0,1,6.62.25,6.55,6.55,0,0,1,3.89,4.24,6.84,6.84,0,0,1-1.11,5.74,10.17,10.17,0,0,1-5.47,3.88,9.83,9.83,0,0,1-6.62-.25,6.57,6.57,0,0,1-3.89-4.24A6.88,6.88,0,0,1,479.5,222,10.12,10.12,0,0,1,485,218.07Z"/><path class="cls-1" d="M248.62,16,265,20a3.9,3.9,0,0,1,2,6.35L255.25,39.92a3.91,3.91,0,0,1-6.72-1.58l-4.6-17.57A3.89,3.89,0,0,1,248.62,16Zm12.22,5.34-9-2.2a3.91,3.91,0,0,0-4.7,4.78l2.53,9.65a3.9,3.9,0,0,0,6.72,1.57l6.49-7.45a3.91,3.91,0,0,0-2-6.35Z"/><path class="cls-1" d="M226.06,30.17,233,23a2.3,2.3,0,0,1,3.84.84l3.45,10a2.23,2.23,0,0,1-.49,2.32,2.26,2.26,0,0,1-2.29.65L227.12,34a2.31,2.31,0,0,1-1.06-3.81Zm6.34-4.67-3.79,4a2.3,2.3,0,0,0,1.06,3.81l5.68,1.56a2.31,2.31,0,0,0,2.78-3l-1.89-5.52a2.3,2.3,0,0,0-3.84-.84Z"/><path class="cls-1" d="M547.74,115.71l2.8,9.57a2.31,2.31,0,0,1-2.65,2.91l-10.42-2a2.31,2.31,0,0,1-1.18-3.9l7.62-7.54a2.3,2.3,0,0,1,3.83,1Zm.87,7.82-1.53-5.26a2.31,2.31,0,0,0-3.83-1l-4.19,4.14a2.31,2.31,0,0,0,1.18,3.9l5.73,1.11a2.29,2.29,0,0,0,2.64-2.9Z"/><path class="cls-1" d="M122.25,47.91l-8.16,5.73a2.3,2.3,0,0,0,.25,3.92l9.41,4.92a2.3,2.3,0,0,0,3.35-2.3l-1.24-10.65a2.31,2.31,0,0,0-3.61-1.62Zm-5.56,5.56,4.48-3.14a2.24,2.24,0,0,1,2.26-.22,2.27,2.27,0,0,1,1.35,1.83l.68,5.85a2.3,2.3,0,0,1-3.35,2.31l-5.17-2.71a2.3,2.3,0,0,1-.25-3.92Z"/><path class="cls-1" d="M401.24,342.45a3.72,3.72,0,0,1,4.35,2.18l48.53-17.07a3.82,3.82,0,1,1,4.68,3.58,3.73,3.73,0,0,1-1.24.08l-7.64,25a3.8,3.8,0,1,1-5.62,3.1l-39.22-10.78A2.82,2.82,0,0,1,403,349.9a4.28,4.28,0,0,1-4.58-2.86,3.9,3.9,0,0,1,2.86-4.59Zm54.82-11.7a3.84,3.84,0,0,1-1.62-1.78L405.92,346a4.11,4.11,0,0,1-.12,1.11l38.91,10.69a3.83,3.83,0,0,1,3.7-2Z"/><path class="cls-1" d="M289.73,150.34a3.84,3.84,0,1,0-3.84-3.84A3.85,3.85,0,0,0,289.73,150.34Z"/><path class="cls-1" d="M295.16,127.13a1.78,1.78,0,1,0-1.78-1.78A1.78,1.78,0,0,0,295.16,127.13Z"/><path class="cls-1" d="M57.57,49.65a2.25,2.25,0,1,0-2.25-2.25A2.25,2.25,0,0,0,57.57,49.65Z"/><path class="cls-1" d="M387.28,86.23a2.95,2.95,0,1,0-2.95-2.94A2.94,2.94,0,0,0,387.28,86.23Z"/><circle class="cls-12" cx="416.33" cy="254.2" r="2.43"/><path class="cls-1" d="M184,330.76a3.74,3.74,0,1,0-3.74-3.73A3.75,3.75,0,0,0,184,330.76Z"/><path class="cls-1" d="M254,330.82a3,3,0,1,0-3-3A3,3,0,0,0,254,330.82Z"/><path class="cls-1" d="M111.09,291.82A1.12,1.12,0,1,0,110,290.7,1.13,1.13,0,0,0,111.09,291.82Z"/><path class="cls-1" d="M189.28,47.7a3.93,3.93,0,1,1-3.93,3.93,3.93,3.93,0,0,1,3.93-3.93ZM175.15,44a1.78,1.78,0,1,1-1.78,1.77A1.78,1.78,0,0,1,175.15,44Z"/><path class="cls-1" d="M131.47,331.54,151,329.19a3.77,3.77,0,0,1,4.18,3.28L157.5,352a3.75,3.75,0,0,1-3.27,4.17l-19.51,2.35a3.7,3.7,0,0,1-2.76-.77,3.79,3.79,0,0,1-1.42-2.51l-2.34-19.5A3.74,3.74,0,0,1,129,333a3.82,3.82,0,0,1,2.5-1.41Zm19.67-1.05-19.51,2.35a2.46,2.46,0,0,0-2.14,2.72l2.35,19.51a2.46,2.46,0,0,0,2.72,2.14l19.51-2.35a2.46,2.46,0,0,0,2.14-2.72l-2.35-19.51a2.39,2.39,0,0,0-.92-1.63A2.42,2.42,0,0,0,151.14,330.49Z"/><path class="cls-1" d="M127.91,301.94l19.51-2.35a3.76,3.76,0,0,1,2.76.78,3.69,3.69,0,0,1,1.41,2.5l2.35,19.51a3.76,3.76,0,0,1-3.28,4.17l-19.5,2.35a3.77,3.77,0,0,1-4.18-3.28l-2.35-19.51a3.78,3.78,0,0,1,.78-2.76A3.72,3.72,0,0,1,127.91,301.94Z"/><path class="cls-3" d="M129.59,315.37a1.81,1.81,0,0,1,2.23-2.84l5.85,4.59,8-10.19a1.81,1.81,0,0,1,2.84,2.23l-9,11.43a2,2,0,0,1-2.86.34Z"/><path class="cls-2" d="M401.05,14.52s94.77,27.77,95.62,32.25S470,109.33,461.42,109.48s-73-18.66-73-18.66S395.7,10.66,401.05,14.52Z"/><path class="cls-3" d="M405.4,22.37s83.33,23.06,84.07,26.8c.58,2.94-14.3,33.53-24.35,46.56-1.45-4.54-4.05-12.18-5.48-13-2-1.2-18.65,5.06-18.65,5.06S428.8,65.33,426.2,62.15c-2-2.46-21.07.83-29.62,2.45C398.89,45.34,402.48,20.38,405.4,22.37Z"/><path class="cls-2" d="M456.43,49.13a9.34,9.34,0,0,1,8.67,9.76,8.94,8.94,0,0,1-9.67,8.4,9.34,9.34,0,0,1-8.67-9.76A8.94,8.94,0,0,1,456.43,49.13Z"/><path class="cls-2" d="M284.87,29.21c-.71,13.3,4.84,40.09,9.74,43.87,6.2,4.78,64.83,13.74,68.13,8.55,2.8-4.4,13.46-38.5,13-50-8.54,6.09-41.77,29.58-46,29.25C326.69,60.61,301.46,41.81,284.87,29.21Z"/><path class="cls-11" d="M373.67,27.76c-7.51-.92-81.26-9.81-86.75-5.63a4.06,4.06,0,0,0-1.17,1.81c16.12,12.31,42.49,32.22,44.79,32.39C333.26,56.54,366,33.25,373.67,27.76Z"/><path class="cls-3" d="M375,27.86l-1.21-.18c-7.49,5.36-40.51,28.86-43.24,28.65-2.36-.18-30.1-21.16-46.06-33.37a24.16,24.16,0,0,0-1.71,4.65c16.47,12.53,43.78,33,47,33.23,4.39.34,39.92-24.9,46.84-29.85C376.32,29.24,375.8,28.12,375,27.86Z"/><path class="cls-9" d="M378.3,22.71a11.81,11.81,0,0,0-16.05,3,11,11,0,0,0,3.56,15.42,11.82,11.82,0,0,0,16.05-3A10.94,10.94,0,0,0,378.3,22.71Z"/><path class="cls-1" d="M1.23,108.43,16,107.25c5-.4,10-.81,15-1.2a3.92,3.92,0,0,1,3.41,2c2.5,4.74,5,9.48,7.4,14.21s4.78,9.47,7.13,14.19c.59,1.18.13,2.23-1,2.34l-13.2,1.18-13,1.18a3.93,3.93,0,0,1-3.23-1.92c-2.91-4.72-5.86-9.46-8.85-14.18s-6.09-9.47-9.16-14.2a1.85,1.85,0,0,1-.35-1.61,1.19,1.19,0,0,1,1.16-.77Zm29.08-1-13.56,1.09-13.4,1.08a1.21,1.21,0,0,0-1.17.78,1.87,1.87,0,0,0,.35,1.6c2.78,4.31,5.57,8.62,8.28,12.93s5.39,8.62,8,12.92a4,4,0,0,0,3.23,1.93Q28,139.2,34,138.67l12.07-1.09c1.13-.1,1.57-1.15,1-2.33-2.16-4.3-4.33-8.61-6.56-12.92S36,113.71,33.7,109.39A3.89,3.89,0,0,0,30.31,107.42Z"/><path class="cls-1" d="M11.56,116.06s3.5-3.73,7.67-3.46,10.61,2.56,15.24,10.1,5.26,4.48,5.74,5.39,1.92,3.66,2.88,5.49a6.47,6.47,0,0,1-8.76-2.6s.25,5.74-7.31,5-11.54-9-10.38-11.24,7.83-5.3,11.59-2.6c0,0-7.52-6.07-10.59-1.33-2-1.56-4-3.14-6.08-4.71Zm17.66,10.4s-10.06-.79-6.94,2.63,8.88.61,8.41-.75A3.44,3.44,0,0,0,29.22,126.46Z"/><path class="cls-1" d="M39,106.2,54.24,105c5.13-.4,10.3-.77,15.47-1.17a3.34,3.34,0,0,1,3.19,2q2.76,7.08,5.43,14.13t5.18,14.12a1.6,1.6,0,0,1-1.35,2.31c-4.59.38-9.16.78-13.7,1.17l-13.52,1.17a3.37,3.37,0,0,1-3-1.89q-3.43-7.08-7-14.13c-2.36-4.7-4.78-9.41-7.21-14.12a1.66,1.66,0,0,1-.11-1.59A1.49,1.49,0,0,1,39,106.2Zm29.88-1c-4.69.36-9.37.69-14,1.06L41,107.36a1.48,1.48,0,0,0-1.31.78,1.71,1.71,0,0,0,.1,1.59q3.3,6.43,6.5,12.87t6.29,12.84a3.35,3.35,0,0,0,3,1.91l12.36-1.07,12.52-1.06a1.59,1.59,0,0,0,1.34-2.31c-1.57-4.28-3.15-8.58-4.78-12.86s-3.31-8.58-5-12.88A3.35,3.35,0,0,0,68.85,105.22Z"/><path class="cls-1" d="M44.71,110.85c2.27,4,4.54,7.89,6.74,11.83s4.36,7.88,6.5,11.83l6.87-.49c-.54-.89-1.08-1.81-1.61-2.72,0,0,9.64,4.8,11.14-.82s-8.81-18.69-18-10.33c-1.57-3.56-3.15-7.14-4.74-10.7,0,0-5.34.61-6.9,1.4Zm14.7,13.41s4.11-4.3,7.32-.76-1,5.12-3.48,4.26A8.17,8.17,0,0,1,59.41,124.26Z"/><path class="cls-1" d="M49.9,149.65s-13-5.86-16.15-1.34-.53,8,2.35,12.6S41.38,169,46.84,171s11.91-1.32,11-2.22-3.5-3.6-5.27-5.4c0,0-5.69,6.09-11.14-3.06s4.49-7.86,8.31-3.17C49.79,154.65,49.84,152.15,49.9,149.65Z"/><path class="cls-1" d="M23,143.48l13.23-1.22,13.44-1.21a3.46,3.46,0,0,1,3.06,2c2.26,4.72,4.51,9.45,6.69,14.16s4.31,9.43,6.41,14.15c.53,1.18.13,2.22-.88,2.33q-5.88.59-11.71,1.2l-11.53,1.2a3.48,3.48,0,0,1-2.89-1.9q-4-7.08-8.11-14.15c-2.75-4.72-5.57-9.45-8.4-14.16a2,2,0,0,1-.34-1.6,1.07,1.07,0,0,1,1-.77Zm26.09-1.06L37,143.52l-12,1.11a1.07,1.07,0,0,0-1,.78,2.09,2.09,0,0,0,.34,1.6q3.84,6.45,7.59,12.9t7.34,12.88a3.5,3.5,0,0,0,2.89,1.91l10.57-1.1c3.54-.37,7.11-.71,10.71-1.09,1-.1,1.4-1.16.87-2.33q-2.92-6.45-5.91-12.89c-2-4.3-4.06-8.61-6.13-12.9A3.46,3.46,0,0,0,49.12,142.42Z"/><path class="cls-11" d="M56,141.14c4.53-.41,9.1-.82,13.68-1.21l13.88-1.21a3,3,0,0,1,2.85,1.95c1.63,4.72,3.25,9.45,4.8,14.15s3.08,9.43,4.56,14.13c.37,1.19-.18,2.22-1.21,2.33l-12.16,1.2q-6,.59-12,1.2a3,3,0,0,1-2.69-1.91c-2.06-4.7-4.13-9.42-6.26-14.12s-4.35-9.42-6.55-14.14a1.87,1.87,0,0,1-.11-1.6A1.29,1.29,0,0,1,56,141.14Z"/></g></g></svg>