<svg xmlns="http://www.w3.org/2000/svg" viewBox="0 0 117.45 117.45"><defs><style>.cls-1{fill:#fff;}.cls-2{fill:#cca48a;}</style></defs><g id="Capa_2" data-name="Capa 2"><g id="Capa_1-2" data-name="Capa 1"><circle class="cls-1" cx="58.72" cy="58.72" r="58.72"/><path class="cls-2" d="M111.66,64.11A88.45,88.45,0,0,0,53.41,5.88a8,8,0,0,0-9.88,5.32,7.91,7.91,0,0,0,4.93,10l.3.11A72.63,72.63,0,0,1,96.24,68.77c0,.1.07.2.11.3a8.05,8.05,0,0,0,15.31-5Z"/><path class="cls-2" d="M43.05,38.19a7.82,7.82,0,0,0-2.8-.64l-5,14.57a8,8,0,1,0,7.81-13.93Z"/><path class="cls-2" d="M57.75,79.53A8,8,0,1,0,45,88.9c.12.12.26.2.38.3l13-4.48A8.05,8.05,0,0,0,57.75,79.53Z"/><path class="cls-2" d="M72,59a2.68,2.68,0,1,0,2.68,2.68A2.68,2.68,0,0,0,72,59Z"/><path class="cls-2" d="M91.27,70.79c-7.34-23.31-22.88-36.34-45-44.71a11,11,0,0,1-1.79-.82L42,32.37A13.39,13.39,0,0,1,39.81,59a13.36,13.36,0,0,1-6.34-1.71L20.63,93.48A2.68,2.68,0,0,0,24,96.89l15.8-5.79a13.25,13.25,0,0,1-2.71-8,13.41,13.41,0,0,1,25.43-5.94,13.15,13.15,0,0,1,1.24,5.71l28.5-9.81A13.13,13.13,0,0,1,91.27,70.79ZM57.79,63.53a2.68,2.68,0,1,1,0-3.79A2.67,2.67,0,0,1,57.79,63.53Zm1.57-21.45a2.68,2.68,0,0,1,3.79-3.79l5.37,5.36a2.69,2.69,0,1,1-3.8,3.8ZM72,69.68a8,8,0,1,1,8-8A8.05,8.05,0,0,1,72,69.68Z"/></g></g></svg>