<svg xmlns="http://www.w3.org/2000/svg" viewBox="0 0 117.45 117.45"><defs><style>.cls-1{fill:#fff;}.cls-2{fill:#8499cf;}</style></defs><g id="Capa_2" data-name="Capa 2"><g id="Capa_1-2" data-name="Capa 1"><circle class="cls-1" cx="58.72" cy="58.72" r="58.72"/><path class="cls-2" d="M58.72,55.72A21.86,21.86,0,1,0,36.86,33.86,21.85,21.85,0,0,0,58.72,55.72ZM74,61.19H71.17a29.75,29.75,0,0,1-24.9,0H43.42a23,23,0,0,0-23,23v7.11a8.2,8.2,0,0,0,8.2,8.19H88.78A8.2,8.2,0,0,0,97,91.25V84.14A23,23,0,0,0,74,61.19Z"/></g></g></svg>