<svg xmlns="http://www.w3.org/2000/svg" viewBox="0 0 29.01 30.63"><defs><style>.cls-1{fill:#905584;}.cls-2{fill:#fff;}</style></defs><g id="Capa_2" data-name="Capa 2"><g id="Capa_1-2" data-name="Capa 1"><path class="cls-1" d="M.4,13.62C-3.22,12.54,18.64-.68,26.51,0s-5.23,32.54-6.31,30.5C19.33,28.87,13.72,17.61.4,13.62Z"/><path class="cls-2" d="M16.83,17.77a6.1,6.1,0,0,0-.46-.41,6.7,6.7,0,0,0-1-.69,12.85,12.85,0,0,0-2.3-1c-.79-.25-1.59-.46-2.38-.64l-.8-.19.44-.19c.31-.14.63-.28,1-.44a5.21,5.21,0,0,0,.47-.24l.48-.27.46-.3.2-.14.13-.1.1-.08a5.83,5.83,0,0,0,.84-.76,2.07,2.07,0,0,0,.4-.61.92.92,0,0,0,0-.69.82.82,0,0,0-.23-.35,1.22,1.22,0,0,0-.26-.18,1.9,1.9,0,0,0-.74-.14,3.71,3.71,0,0,0-.58,0c-.37,0-.72.1-1.07.17s-.68.15-1,.24c-.67.19-1.33.39-2,.64s-1.29.51-1.91.8a10.1,10.1,0,0,0-.92.49,4.93,4.93,0,0,0-.86.57c.31-.14.64-.23,1-.34s.65-.18,1-.27q1-.26,2-.48c.66-.14,1.31-.29,2-.4a17.11,17.11,0,0,1,1.94-.24h.28a5.22,5.22,0,0,1-.6.52l-.09.07-.09.07-.21.14a3.29,3.29,0,0,1-.39.26c-.13.08-.27.17-.41.24l-.43.24-.9.44-1.83.92-1.27.65L8,15.52c.83.23,1.65.34,2.45.48s1.6.24,2.39.41a14.39,14.39,0,0,1,2.31.64c.18.07.37.14.55.23a5.28,5.28,0,0,1,.53.27,5.58,5.58,0,0,1,.52.32q.24.16.48.36A4.36,4.36,0,0,0,16.83,17.77Z"/></g></g></svg>