<svg xmlns="http://www.w3.org/2000/svg" viewBox="0 0 117.45 117.45"><defs><style>.cls-1{fill:#fff;}.cls-2{fill:#e06f77;}</style></defs><g id="Capa_2" data-name="Capa 2"><g id="Capa_1-2" data-name="Capa 1"><circle class="cls-1" cx="58.72" cy="58.72" r="58.72"/><path class="cls-2" d="M98.05,77.65,93.93,53a4.93,4.93,0,0,0-4.87-4.11H51.34V39H66.13a2.47,2.47,0,0,0,2.47-2.46V21.74a2.48,2.48,0,0,0-2.47-2.47H26.68a2.47,2.47,0,0,0-2.46,2.47V36.53A2.47,2.47,0,0,0,26.68,39h14.8v9.86H28.39A4.94,4.94,0,0,0,23.53,53L19.41,77.63a9.85,9.85,0,0,0-.14,1.62v14a4.93,4.93,0,0,0,4.93,4.93h69a4.92,4.92,0,0,0,4.93-4.93v-14A8,8,0,0,0,98.05,77.65ZM62.44,57.49A2.47,2.47,0,0,1,64.9,55h2.47a2.47,2.47,0,0,1,2.46,2.47V60a2.47,2.47,0,0,1-2.46,2.46H64.9A2.47,2.47,0,0,1,62.44,60ZM57.5,67.35H60a2.48,2.48,0,0,1,2.47,2.47v2.46A2.48,2.48,0,0,1,60,74.75H57.5A2.47,2.47,0,0,1,55,72.28V69.82A2.47,2.47,0,0,1,57.5,67.35ZM52.57,55A2.48,2.48,0,0,1,55,57.49V60a2.47,2.47,0,0,1-2.47,2.46H50.11A2.47,2.47,0,0,1,47.64,60V57.49A2.48,2.48,0,0,1,50.11,55ZM31.62,31.6V26.67H61.2V31.6Zm6.16,30.82H35.31A2.47,2.47,0,0,1,32.85,60V57.49A2.47,2.47,0,0,1,35.31,55h2.47a2.48,2.48,0,0,1,2.47,2.47V60A2.47,2.47,0,0,1,37.78,62.42Zm2.47,9.86V69.82a2.47,2.47,0,0,1,2.46-2.47h2.47a2.47,2.47,0,0,1,2.46,2.47v2.46a2.47,2.47,0,0,1-2.46,2.47H42.71A2.47,2.47,0,0,1,40.25,72.28ZM73.53,89.54a1.24,1.24,0,0,1-1.23,1.24H45.18a1.25,1.25,0,0,1-1.24-1.24V87.08a1.24,1.24,0,0,1,1.24-1.23H72.3a1.23,1.23,0,0,1,1.23,1.23Zm3.7-17.26a2.48,2.48,0,0,1-2.47,2.47H72.3a2.48,2.48,0,0,1-2.47-2.47V69.82a2.48,2.48,0,0,1,2.47-2.47h2.46a2.48,2.48,0,0,1,2.47,2.47ZM84.63,60a2.47,2.47,0,0,1-2.47,2.46H79.7A2.47,2.47,0,0,1,77.23,60V57.49A2.48,2.48,0,0,1,79.7,55h2.46a2.48,2.48,0,0,1,2.47,2.47Z"/></g></g></svg>