<svg xmlns="http://www.w3.org/2000/svg" viewBox="0 0 407.53 103.3"><defs><style>.cls-1{fill:#3c3837;}.cls-2{fill:#a3195b;}.cls-3{fill:#905584;}.cls-4{fill:#fff;}</style></defs><g id="Capa_2" data-name="Capa 2"><g id="Capa_1-2" data-name="Capa 1"><path class="cls-1" d="M116.27,64.39a6.72,6.72,0,0,1,.34,2.43,5.89,5.89,0,0,1-.81,2.61A8.14,8.14,0,0,1,113.33,72a16.24,16.24,0,0,1-4.56,2c1.14-1,1.64-1.85,1.52-2.52s-.79-.77-2-.33a99.92,99.92,0,0,1-4.84,16q-2.57,6.08-4.28,9.59c-.88,1.59-1.64,2.85-2.28,3.8a10.43,10.43,0,0,1-1.71,2.09,2.52,2.52,0,0,1-1.33.72,1.69,1.69,0,0,1-1-.24c-.7-.38-.94-1.21-.71-2.47a48.37,48.37,0,0,1,2.13-6.84c.7-2.35,1.62-5.29,2.76-8.84a96.19,96.19,0,0,0,3-13.3,21,21,0,0,1-4.56.76,52.71,52.71,0,0,1-5.51.1c-1.9-.06-3.71-.21-5.42-.43s-3.1-.43-4.18-.62q-.37,6-.57,9.6c-.12,2.4-.54,3.7-1.23,3.89-.51.13-1-.14-1.62-.8A11,11,0,0,1,75.28,81a35,35,0,0,1-1.47-5.13,60.44,60.44,0,0,1-1-6.84,32,32,0,0,1-6.31-3.61,23.16,23.16,0,0,1-5.18-5.23,16.76,16.76,0,0,1-2.8-6.36,18.19,18.19,0,0,1-.34-6.18,9.94,9.94,0,0,1,1.62-4.46,2.69,2.69,0,0,1,3-1.24,2.3,2.3,0,0,1,1.52,1.62c.32.89.63,1.93,1,3.13a29.34,29.34,0,0,0,1.28,3.76,11.31,11.31,0,0,0,2.52,3.65,13.39,13.39,0,0,0,1.52,1.48A18.23,18.23,0,0,0,72.48,57a78.94,78.94,0,0,1,2.28-14.63,49.83,49.83,0,0,1,4.89-12.54A26.93,26.93,0,0,1,87,21.26a14.38,14.38,0,0,1,9.79-2.75,11.77,11.77,0,0,1,7.46,2.94,18.28,18.28,0,0,1,4.51,6.61A34.85,34.85,0,0,1,111,36.84a70.05,70.05,0,0,1,.57,9.5,84.4,84.4,0,0,1-.52,8.74q-.48,4.1-1,6.46a6.19,6.19,0,0,1,4.08.19A4.12,4.12,0,0,1,116.27,64.39Zm-15.1-.66c.06-.51.2-1.68.43-3.52s.41-4,.57-6.46.23-5.11.23-7.93a43.67,43.67,0,0,0-.66-7.84,18.71,18.71,0,0,0-2.09-6,5.1,5.1,0,0,0-8.36-1,19.09,19.09,0,0,0-3.56,5.23A44.44,44.44,0,0,0,85,43.35q-1.14,3.94-2,7.55t-1.23,6.37c-.29,1.84-.46,3-.53,3.61,1.59.63,3.26,1.2,5,1.71a47.53,47.53,0,0,0,5.22,1.19,31.16,31.16,0,0,0,5,.42A20.47,20.47,0,0,0,101.17,63.73Z"/><path class="cls-1" d="M161.49,66.86c.38-.88.76-1.28,1.14-1.18s.41.58.1,1.47-.62,1.74-1.1,2.94a17.07,17.07,0,0,1-1.85,3.47,13,13,0,0,1-2.8,3A7.36,7.36,0,0,1,153,78q-4.28.28-6.23-2.47a15.08,15.08,0,0,1-2.46-6.94,43,43,0,0,1-.15-8.83c.26-3.1.51-5.8.76-8.08a3.44,3.44,0,0,0-.9-3.27,3.79,3.79,0,0,0-3.14-.72,10.26,10.26,0,0,0-4.22,1.86,15.87,15.87,0,0,0-4.18,4.41q-1.14,5.81-2.38,10.41t-2.37,8.21a9.23,9.23,0,0,1-2.47,3.61,6.79,6.79,0,0,1-3.14,1.71,2.62,2.62,0,0,1-2.47-.66c-.63-.63-.76-1.77-.38-3.42s.71-3.39,1-5.42.56-4.16.81-6.41.46-4.54.61-6.89.34-4.62.53-6.84a7.54,7.54,0,0,1,1.9-5.36,9.17,9.17,0,0,1,4.08-2.71,5.93,5.93,0,0,1,4,.09,2.82,2.82,0,0,1,1.76,3c0,.57,0,1.19-.1,1.86s-.16,1.37-.28,2.13a25.61,25.61,0,0,1,3.75-4A16.11,16.11,0,0,1,141,40.88a11.45,11.45,0,0,1,3.61-1,26,26,0,0,1,3.75-.09,21.91,21.91,0,0,1,3.28.66,7.43,7.43,0,0,1,2.9,1.57A5.94,5.94,0,0,1,156.31,45a9.21,9.21,0,0,1-.14,4.6c-.44,1.71-1,3.9-1.66,6.56s-1.22,5.29-1.66,7.88a37.11,37.11,0,0,0-.62,6.8q0,2.89,1.47,3.27a3.33,3.33,0,0,0,3-.42A10.09,10.09,0,0,0,159,71.42a14.74,14.74,0,0,0,1.61-2.66C161,67.88,161.3,67.24,161.49,66.86Z"/><path class="cls-1" d="M205,66.58q.57-1.23,1.14-1.14c.38.06.41.54.1,1.42s-.62,1.75-1.1,3a17.34,17.34,0,0,1-1.85,3.47,13,13,0,0,1-2.8,2.94,7.2,7.2,0,0,1-3.94,1.47,4.72,4.72,0,0,1-4.14-1.61,11.5,11.5,0,0,1-2.32-4.85,18.35,18.35,0,0,1-4.14,4,14.92,14.92,0,0,1-6.12,2.47,23.56,23.56,0,0,1-5.42.19A19.27,19.27,0,0,1,168,76.36a17.05,17.05,0,0,1-5.84-4.13,14.52,14.52,0,0,1-3.52-7.74,24.73,24.73,0,0,1-.24-6.65,23,23,0,0,1,1.52-6.27,21.49,21.49,0,0,1,3.14-5.37,17.65,17.65,0,0,1,4.61-4A15,15,0,0,1,173,39.88a15.75,15.75,0,0,1,5.32-.23A14.56,14.56,0,0,1,183,41a9.55,9.55,0,0,1,3.23,2.47c1.58,1.84,2.41,3.42,2.47,4.75s-.19,2.13-.76,2.38a2.47,2.47,0,0,1-2.33-.29,25.62,25.62,0,0,0-3.42-1.42,12.29,12.29,0,0,0-4.22-.62,8.16,8.16,0,0,0-4.85,2.14A9.91,9.91,0,0,0,171,52.61a12.33,12.33,0,0,0-1.52,2.9,12.58,12.58,0,0,0-.71,3.33,13.79,13.79,0,0,0,.14,3.46A7,7,0,0,0,170,65.06a7.65,7.65,0,0,0,2.09,2,8.8,8.8,0,0,0,2.8,1.19,9,9,0,0,0,3.19.19,12.61,12.61,0,0,0,5.6-2A11,11,0,0,0,187,63.11,12.25,12.25,0,0,0,188.47,59c.25-1.43.44-2.77.57-4q.19-3.33.43-5.84a27.77,27.77,0,0,1,.43-3.28q.57-3.23,2.37-4a4.88,4.88,0,0,1,3.66-.1,7.2,7.2,0,0,1,3.18,2.33,3.91,3.91,0,0,1,1,3.18q-.19,1.05-.81,3.33c-.41,1.52-.86,3.24-1.33,5.18s-.92,3.91-1.33,5.93a53.6,53.6,0,0,0-.86,5.66,19.76,19.76,0,0,0,0,4.37q.24,1.76,1.38,2a3.33,3.33,0,0,0,2.95-.43,9.61,9.61,0,0,0,2.32-2.23,14.59,14.59,0,0,0,1.62-2.66C204.51,67.59,204.81,67,205,66.58Z"/><path class="cls-1" d="M225.14,51.66c.19-1.52-.06-2.59-.76-3.23a2.93,2.93,0,0,0-2.71-.61,8,8,0,0,0-3.51,1.9A12.91,12.91,0,0,0,215,53.94q-1.14,5.81-2.38,10.41t-2.37,8.21a9.23,9.23,0,0,1-2.47,3.61,6.79,6.79,0,0,1-3.14,1.71,2.61,2.61,0,0,1-2.47-.66c-.63-.63-.76-1.77-.38-3.42s.71-3.39,1-5.42.55-4.16.81-6.41.46-4.54.61-6.89.34-4.62.53-6.84a7.54,7.54,0,0,1,1.9-5.36,9.17,9.17,0,0,1,4.08-2.71,5.93,5.93,0,0,1,4,.09,2.83,2.83,0,0,1,1.76,3c0,.57,0,1.19-.1,1.86s-.16,1.37-.28,2.13c1.64-3,3.48-5.09,5.51-6.17a12.48,12.48,0,0,1,6.93-1.33,21.91,21.91,0,0,1,3.28.66,7.43,7.43,0,0,1,2.9,1.57A5.94,5.94,0,0,1,236.49,45a9.21,9.21,0,0,1-.14,4.6c-.13.57-.27,1.19-.43,1.86s-.33,1.37-.52,2.13a3.22,3.22,0,0,1-2.18,1.81,10.56,10.56,0,0,1-3.61.52,10.86,10.86,0,0,1-3.38-.57c-1-.35-1.44-.84-1.37-1.47.06-.44.11-.84.14-1.19A10,10,0,0,1,225.14,51.66Z"/><path class="cls-1" d="M280.53,66.86c.44-.88.85-1.28,1.23-1.18s.41.58.1,1.47-.62,1.74-1.1,2.94a15.52,15.52,0,0,1-1.9,3.47,14,14,0,0,1-2.85,3A7.33,7.33,0,0,1,272.07,78a4.6,4.6,0,0,1-4.32-2,15.11,15.11,0,0,1-2.33-5.7A14.11,14.11,0,0,1,260.24,76a14.55,14.55,0,0,1-8.5,2,12.51,12.51,0,0,1-7.12-2.19,12.85,12.85,0,0,1-4-5,19.41,19.41,0,0,1-1.66-6.65,44.66,44.66,0,0,1,0-7.13,52.38,52.38,0,0,1,.9-6.41c.41-2,.78-3.48,1.09-4.56q1.34-4.28,3.61-5.42a5.21,5.21,0,0,1,4.37-.33,6.8,6.8,0,0,1,3.37,2.9,5.3,5.3,0,0,1,.72,4.27c-.19.7-.51,1.71-.95,3s-.91,2.81-1.38,4.42a48.8,48.8,0,0,0-1.19,5,22.2,22.2,0,0,0-.38,4.89,8.92,8.92,0,0,0,1,3.94,4.29,4.29,0,0,0,3,2.14,8.86,8.86,0,0,0,8.55-2.14,9.92,9.92,0,0,0,2.19-3.09,7.6,7.6,0,0,0,.76-2.94q-.1-2.76,0-5.46c.06-1.81.15-3.47.28-5s.25-2.84.38-3.94.22-1.89.29-2.33q.57-3.23,2.37-4a4.74,4.74,0,0,1,3.66,0,7.56,7.56,0,0,1,3.18,2.38,3.91,3.91,0,0,1,1,3.18c-.13.7-.4,1.8-.81,3.32s-.86,3.25-1.33,5.18S272.72,60,272.31,62a53.44,53.44,0,0,0-.86,5.65,21.07,21.07,0,0,0,0,4.37q.24,1.75,1.38,2a3.33,3.33,0,0,0,2.95-.42,9.32,9.32,0,0,0,2.28-2.24,16.3,16.3,0,0,0,1.56-2.66C280,67.88,280.34,67.24,280.53,66.86Z"/><path class="cls-1" d="M318.43,65.25a19.27,19.27,0,0,0,3.18,9.12,20.14,20.14,0,0,0,5.89,5.56,26.53,26.53,0,0,0,7,3q3.66.94,6.75,1.57a42.24,42.24,0,0,1,5.08,1.28c1.33.44,2,1.11,1.9,2,0,.45-.7.89-2.09,1.33a22.13,22.13,0,0,1-5.37.86,45.31,45.31,0,0,1-7.31-.24,30.62,30.62,0,0,1-8-1.95,28.13,28.13,0,0,1-7.37-4.22,19.71,19.71,0,0,1-5.51-7.18,29.79,29.79,0,0,1-2.7,5.75c-.92,1.43-1.92,2.07-3,2s-1.62-.86-2-2.19a18.25,18.25,0,0,1-.52-5.22,55.86,55.86,0,0,1,.66-7.36c.41-2.76.9-5.62,1.47-8.6s1.19-6,1.86-9l1.85-8.41a19.46,19.46,0,0,0,.57-6.17,5.25,5.25,0,0,0-1.09-3,1.46,1.46,0,0,0-1.76-.38,2.8,2.8,0,0,0-1.43,1.56A12.08,12.08,0,0,1,307,30.1a24.12,24.12,0,0,0-3,1.71,31.8,31.8,0,0,0-2.57,1.9A7.84,7.84,0,0,1,298,35.42a2.92,2.92,0,0,1-2.47-.43,2.38,2.38,0,0,1-.66-2.28,8.24,8.24,0,0,1,1.9-3.75A30.82,30.82,0,0,1,301,24.59a30.41,30.41,0,0,1,6.18-4A35.06,35.06,0,0,1,315,17.8a30.63,30.63,0,0,1,9.31-.62,29.37,29.37,0,0,1,11.31,3.61A22.75,22.75,0,0,1,343,27.53a23.7,23.7,0,0,1,3.65,8.7,27,27,0,0,1,.29,9.31A25.83,25.83,0,0,1,344,54.32a21.87,21.87,0,0,1-14.53,11.07A24.49,24.49,0,0,1,318.43,65.25Zm-1.23-9.41q6.27,1.33,10.54-.42a13.68,13.68,0,0,0,6.46-5.13,15,15,0,0,0,2.38-7.6,15.65,15.65,0,0,0-1.67-7.89,14.51,14.51,0,0,0-5.79-6,16.83,16.83,0,0,0-9.83-1.95,7,7,0,0,1,.8,3.23,42,42,0,0,1,0,5q-.13,2.85-.57,6c-.28,2.09-.57,4.1-.85,6s-.57,3.67-.86,5.23S317.32,55.08,317.2,55.84Z"/><path class="cls-2" d="M210.53,25.14c-1.36-2.89-9.85-1.53-9.85-1.53s-8.5-1.36-9.85,1.53,6.45,10.53,9.85,10.53h0C204.08,35.67,211.89,28,210.53,25.14Z"/><path class="cls-3" d="M91.38,14.92C94.89,13.52,72,2.25,64.19,3.64s8,32,8.94,29.84C73.85,31.76,78.46,20.05,91.38,14.92Z"/><path class="cls-4" d="M75.37,20.48c.14-.15.28-.31.43-.45a7.2,7.2,0,0,1,1-.78A12.9,12.9,0,0,1,79,18.1c.77-.32,1.55-.6,2.32-.85l.78-.26-.46-.15c-.32-.11-.65-.22-1-.35l-.49-.2c-.16-.07-.33-.14-.5-.23s-.34-.17-.48-.26L79,15.68l-.13-.08-.12-.08a7.34,7.34,0,0,1-.9-.68,2.29,2.29,0,0,1-.45-.58,1,1,0,0,1-.08-.68.93.93,0,0,1,.2-.37,1.8,1.8,0,0,1,.24-.2,2,2,0,0,1,.73-.21l.58,0c.37,0,.72,0,1.08.07s.69.09,1,.16a19.73,19.73,0,0,1,2,.47c.67.18,1.33.39,2,.63a10.2,10.2,0,0,1,1,.4A5.37,5.37,0,0,1,87,15a9,9,0,0,0-1-.25l-1-.19c-.67-.12-1.34-.22-2-.31s-1.34-.17-2-.22A16.39,16.39,0,0,0,79,14l-.28,0a6.62,6.62,0,0,0,.64.47l.11.06.09.06.22.12a4.49,4.49,0,0,0,.41.23l.43.2.45.2.93.36,1.91.76,1.32.53-1.3.5a23.85,23.85,0,0,1-2.41.69c-.78.2-1.57.38-2.34.61a16.32,16.32,0,0,0-2.24.84l-.53.28c-.17.1-.34.2-.51.32a5.46,5.46,0,0,0-.48.36A4.36,4.36,0,0,0,75,21C75.12,20.81,75.24,20.64,75.37,20.48Z"/><path class="cls-3" d="M328.9,13.62C325.28,12.54,347.14-.68,355,0s-5.23,32.54-6.31,30.5C347.83,28.87,342.22,17.61,328.9,13.62Z"/><path class="cls-4" d="M345.34,17.77c-.15-.14-.3-.28-.47-.41a6.7,6.7,0,0,0-1-.69,12.85,12.85,0,0,0-2.3-1c-.79-.25-1.59-.46-2.38-.64l-.8-.19.44-.19c.32-.14.63-.28.95-.44a5.21,5.21,0,0,0,.47-.24q.24-.12.48-.27c.16-.1.33-.2.46-.3l.21-.14.12-.1.1-.08a5.35,5.35,0,0,0,.84-.76,1.89,1.89,0,0,0,.4-.61.92.92,0,0,0,0-.69.74.74,0,0,0-.23-.35,1.22,1.22,0,0,0-.26-.18,1.87,1.87,0,0,0-.74-.14,3.71,3.71,0,0,0-.58,0c-.37,0-.72.1-1.07.17s-.68.15-1,.24c-.67.19-1.33.39-2,.64s-1.29.51-1.91.8a10.1,10.1,0,0,0-.92.49,4.93,4.93,0,0,0-.86.57c.31-.14.64-.23,1-.34l1-.27q1-.26,2-.48c.66-.14,1.31-.29,2-.4a17.11,17.11,0,0,1,1.94-.24h.28a6.08,6.08,0,0,1-.59.52l-.1.07-.09.07-.2.14a4.39,4.39,0,0,1-.4.26,4,4,0,0,1-.41.24l-.43.24-.9.44-1.83.92-1.27.65,1.34.38c.84.23,1.65.34,2.45.48s1.6.24,2.39.41a14.39,14.39,0,0,1,2.31.64c.18.07.37.14.55.23a5.28,5.28,0,0,1,.53.27,5.58,5.58,0,0,1,.52.32c.16.11.33.23.49.36C345.62,18.07,345.48,17.92,345.34,17.77Z"/><path class="cls-3" d="M55,49.44l-1.84.1c-1.16.06-2.84.1-4.84.14s-4.35,0-6.85.06c-1.25,0-2.54,0-3.85.08s-2.65.12-4,.19-2.66.23-4,.34-2.59.28-3.84.42l-6.78.87c-2,.25-3.65.43-4.81.55s-1.83.17-1.83.17.65-.15,1.8-.37S17,51.44,19,51.1l3.19-.57L25.75,50c1.24-.15,2.52-.33,3.83-.46s2.66-.24,4-.3,2.68-.14,4-.14l2,0,1.91,0c2.51,0,4.85.13,6.85.19s3.67.12,4.84.12Z"/><path class="cls-3" d="M51.23,54.17l-1.61.47c-.52.14-1.14.35-1.84.59s-1.5.5-2.37.81c-1.74.59-3.74,1.36-5.9,2.12l-3.36,1.15c-1.16.35-2.32.75-3.53,1s-2.41.52-3.57.81-2.31.56-3.42.85c-2.2.61-4.27,1.18-6.07,1.59a28.46,28.46,0,0,1-4.42.65c-.53.05-1,0-1.24.05h-.44s.61-.07,1.67-.23a36.86,36.86,0,0,0,4.31-.94c1.76-.48,3.78-1.21,6-1.83,1.1-.32,2.26-.63,3.43-.92s2.38-.54,3.56-.84,2.34-.62,3.49-1l3.36-1.09c1.09-.36,2.15-.69,3.16-1s2-.61,2.83-.87,1.7-.48,2.43-.67,1.35-.35,1.88-.45Z"/><path class="cls-3" d="M55.47,46.4,53.11,46l-2.72-.43-1.67-.27-1.86-.23-4.18-.51c-1.48-.19-3.06-.31-4.68-.47s-3.3-.33-5-.43l-5.18-.36c-3.47-.16-6.95-.34-10.21-.45l-8.91-.45C3.48,42.13,0,41.85,0,41.85v-.09l2.4,0c.76,0,1.69,0,2.75,0s2.26,0,3.57,0l4.21.08c1.5,0,3.08.12,4.71.17s3.32.16,5,.29l5.19.36,5.18.45c1.71.14,3.39.34,5,.52s3.2.33,4.68.56l4.18.61,1.85.28,1.67.3,2.7.5,2.35.43Z"/><path class="cls-3" d="M352.65,52.88l2.28-.32c.73-.12,1.62-.17,2.64-.23.52,0,1.06-.08,1.64-.1l1.81,0c1.26,0,2.62,0,4.07.07s3,.12,4.53.22,3.19.19,4.84.27c.82.06,1.65.06,2.48.09s1.66,0,2.5,0l9.85,0c1.57,0,3.09,0,4.53,0l4.06,0c2.51,0,4.61,0,6.08,0h2.31L404,53c-1.47.07-3.56.21-6.08.31l-4.06.18c-1.44.08-3,.1-4.53.1l-9.85.08c-.84,0-1.69,0-2.52-.06s-1.68,0-2.5-.11c-1.66-.09-3.28-.2-4.85-.32l-4.51-.34c-1.44-.08-2.79-.19-4.05-.2s-2.4-.08-3.42,0-1.91,0-2.64.09Z"/><path class="cls-3" d="M360.63,57.7l1.58.27c1,.18,2.45.42,4.17.76s3.72.71,5.86,1.17L379,61.32l3.39.78c1.12.3,2.23.57,3.28.88,2.12.6,4,1.27,5.73,1.69.85.21,1.62.42,2.31.54s1.31.26,1.82.31l1.59.22-1.61-.06a18.46,18.46,0,0,1-1.84-.17,19.91,19.91,0,0,1-2.37-.38c-.87-.17-1.79-.41-2.77-.65l-3.05-.81c-1.05-.29-2.15-.54-3.25-.81l-3.41-.73L372.1,60.6c-2.13-.49-4.11-1-5.82-1.41s-3.11-.81-4.1-1.06Z"/><path class="cls-3" d="M371.22,43.9c-1.54.55-3,1-4.43,1.59L362.86,47l-1.75.67-1.55.67L357,49.41l-2.2.94,0-.07,2.18-1,2.51-1.14,1.53-.7,1.74-.72,3.9-1.61c1.38-.58,2.88-1.09,4.4-1.68s3.11-1.17,4.74-1.71l4.92-1.7,4.94-1.61c1.63-.55,3.25-1,4.81-1.5s3.08-.93,4.53-1.31l4.07-1.1c1.26-.35,2.42-.63,3.45-.89s1.93-.49,2.67-.67l2.33-.56,0,.08s-3.3,1.13-8.29,2.67l-8.53,2.6c-3.14.9-6.47,1.92-9.8,2.92L376,42.26"/></g></g></svg>